<svg id="Layer_1" data-name="Layer 1" xmlns="http://www.w3.org/2000/svg" viewBox="0 0 370.5 370.5"><defs><style>.cls-1{fill:#fefefe;}.cls-2{fill:#f5f5f4;}.cls-3{fill:#eaeaea;}.cls-4{fill:#f6f6f6;}.cls-5{fill:#f9902b;}.cls-6{fill:#2b2b87;}.cls-7{fill:#4b51db;}.cls-8{fill:#c7c4c1;}.cls-9{fill:#edba5a;}.cls-10{fill:#f0bc58;}.cls-11{fill:#4c53db;}.cls-12{fill:#f0bc59;}.cls-13{fill:#f2f2f2;}.cls-14{fill:#fbfbfb;}.cls-15{fill:#070705;}.cls-16{fill:#f98490;}.cls-17{fill:#6348f5;}.cls-18{fill:#ededed;}.cls-19{fill:#1b1a17;}.cls-20{fill:#e6e6e6;}.cls-21{fill:#dcdcdc;}.cls-22{fill:#e2e2e2;}.cls-23{fill:#d6d6d4;}.cls-24{fill:#ccccce;}.cls-25{fill:#d1d1d2;}.cls-26{fill:#e0e0e0;}.cls-27{fill:#d3d2d3;}.cls-28{fill:#dfdfde;}.cls-29{fill:#f6838e;}.cls-30{fill:#ceced2;}</style></defs><path class="cls-1" d="M492.5,316.18V460.39H122V89.89H492.5v97.62a9.28,9.28,0,0,1-1.84-1.54c-3-4.41-5.76-9.07-9.1-13.24-2.37-3-5.59-5.13-9.88-3.67L468,166l-10.11,10.83,2.77,3.41c-.07,1.53-.69,3.31-.11,4.52a73.67,73.67,0,0,0,5.37,9c1.29,2,2.89,3.73,4.36,5.58.13,5.39-1.79,7.58-7.31,8.35-.16-.45-.18-1.13-.5-1.32-5-3-10-6-15.17-8.78-.88-.48-2.4.22-3.63.37-6.93-3.38-13.81-3.29-20.84.2.77,2.71,1.51,5.27,2.24,7.83a46.43,46.43,0,0,1-5.44-.63c-2.66-.61-5.26-1.49-7.89-2.25-5.09-2.64-9.88-1.67-14,1.89-3.9,3.4-3.32,7.83-1.62,12.21.36.91.66,1.83,1,2.75-.08,2.28-.17,4.57-.25,6.85-2.32.41-4.62,1-7,1.21-9.72.81-14.22,6.85-12.17,16.54l-1.45,2.66c-12,1.61-15.18,7.95-9.2,18.16.31.53.66,1,.92,1.58,1.57,3.28,2.72,6.56.66,10.13-.2.36.68,1.35,1.05,2.05.83,5.51,2.34,7.4,6.33,8.17,2.09.4,4.15,1,6.22,1.51q1.2,6,2.42,12c-2.08,4.93-5.28,9.7-6,14.81-1.21,8.68-1.09,17.58-1.07,26.39,0,10.64.81,21.14-3.11,31.56-4.48,11.91-7.74,24.3-11.58,36.46-.55,1.73-1,3.15,1.61,3.12.46,3.42,1.43,6.54,4.83,8.23l-1.28,5.2-8.48-.11L321,426.08c-.18-.57-.19-1.43-.57-1.66-3.35-2-3.58-4.75-2.67-8.26a45.34,45.34,0,0,0,1-8.74c.54-9,1-18.09,1.48-27.13.75-14.19,1.63-28.37,2.15-42.56.15-4.12,1-7.58,3.66-10.83,3.11-3.84,4.4-8.2,1.71-13-1.56-2.76-3.63-5.45-4.33-8.43-1.07-4.61-1.27-9.43-1.65-14.18-.3-3.79,1.57-5.17,5.13-4.08,3.28,1,6.59,1.94,9.84,3a8,8,0,0,1,2,1.61l-2.38,3.17,3.19,4.79c-.12,1.08-.64,2.3-.3,3.2,1.34,3.53,4.15,5.08,7.87,5.06a46.45,46.45,0,0,0-.37,6.1c0,.49,1.49.89,2.29,1.33l.87,3.86c-3.29,2.33-2.9,5.06-.87,8,1,2.66,1.32,5.77,3,7.86,2,2.53,7.65,2.36,10.26.53,3.1-2.17,4.75-6.51,3-10.08-2.37-4.83-1.29-8.73,1.87-12.54a10.94,10.94,0,0,0,1.2-1.86c2.56-4.72,3.29-9.77.47-14.39-2.54-4.17-6.24-7.38-11.86-6.48L349,288.86c.22-1.19.4-2.39.68-3.57,1.23-5.2,3.07-10.32,3.63-15.59,1-9.62,1.73-19.15,4.89-28.48,4-11.82,1.43-18.07-8.78-25.05-1.76-1.2-2.33-2.5-1.23-4.67s1.52-4.59,2.3-6.89c.88-2.63,1.43-5.46,2.82-7.79,2.44-4.09,5.58-7.76,8.12-11.8,3-4.75,5.05-10.08,4.45-15.68-1-9.69-5-18.05-14.09-22.8-2.59-1.34-5.34-3.75-8.76-1.78-18.76-5.42-33.5,2.56-47.53,13.85l2.52,3.64c.79,3.11.85,6.69,2.5,9.24,5.29,8.18,10.78,9.08,18.82,4,2.47-1.56,5-3.3,7.69-4.2,3.11-1,6.72-3.26,9.5.88-3,4.18-5.85,8.42-8.89,12.54-5.3,7.19-5.84,14.79-2.31,22.84,1.34,2.25,2.61,4.55,4.06,6.73a21.08,21.08,0,0,0,2.59,2.68,23.52,23.52,0,0,0-2.85,3.07c-3,4.54-.87,8.91.69,13.26-.35,3.95,1.48,6.79,4.58,9q-1.21,10-2.41,19.95c-4.65-1.36-9.36-2.55-13.92-4.14-2.73-.95-2.66-3.43-2.11-5.86.45-2,1.2-4,1.17-6-.08-4.28.22-8.08,3.83-11.26,2.53-2.23,1.76-4.21-1.2-6-.81-.5-1.28-1.56-1.91-2.35-.94-.32-1.93-1-2.81-.88a48.73,48.73,0,0,0-5.88,1.5c-2.11-3.26-5-4.46-8.22-3.38-5-3.4-10-2.81-14.9.09A10.23,10.23,0,0,0,282,236.62c.53,1.34,1.05,2.68,1.57,4-.31.59-1,1.43-.87,1.73,1.76,3,3.66,5.85,5.52,8.76l-.65,4.36c-5.81,2-11.21,4.88-13.64,10.88a98.74,98.74,0,0,0-5.26,16.82c-1,4.68-.67,9.62-.94,14.44-.11,7,2.84,11.43,8.89,13.4q-2.42,16.78-4.85,33.57-4.71,32.88-9.34,65.76c-.15,1.1.52,2.33.82,3.5.25,2.18-.88,4.93,2.38,5.9l.11,1.61-.9,5-18.6,0c.44-5.43-1.86-10-4.45-14.52-1.11-1.94-2.44-4.5-2-6.43,1.31-6.14-1.45-10.51-4.67-15.18-2-2.92-4.23-6.67-4.08-9.94a176.92,176.92,0,0,1,3.33-25.37c1.12-5.72,4.06-11.1,5-16.82a170.3,170.3,0,0,0,2.31-24.8c.23-11.28-.82-22.59-.46-33.87a18.56,18.56,0,0,0-11.45-17.21c-5-1.85-6-6.15-2.09-9.74,2.75-2.53,6.21-4.29,9.38-6.35a13.17,13.17,0,0,0,6-12.33c-.39-5.88-3.42-10.75-9.47-12.85-.87-.3-2,.26-3.09.42-7.8-4.82-13.69-3-17.54,5.36l-4.42,2.06-5.93.61a42.31,42.31,0,0,1,.93-5.77,34.13,34.13,0,0,0,.63-18.17c-3.22-13.13-15.22-20.33-28-20.8-1.77-.07-4.27-1.39-5.35,1.5-12.87.25-24.55,3.91-34.78,11.8l2.32,4.17c-.47,13.46,9,19.7,20.91,13.71,5-2.49,10-4,15.55-2.36-2.23,2.87-4.41,5.79-6.72,8.6s-5.15,5.3-7.11,8.35c-3.58,5.56-3.89,11.62-1.27,17.75.83,1.94,1.55,3.93,2.52,5.78a33.48,33.48,0,0,0,2.66,3.78,3.73,3.73,0,0,0-1.34.46c-4.53,4-5.13,8.61-2.08,15.75-.28.6-1,1.41-.78,1.78,1.92,3.91,3.16,8.67,6.19,11.39,5.12,4.59,11.29,8.06,17.23,11.63,4.47,2.67,9.28,4.76,13.94,7.12-4.43,17.44-8.79,34.89-13.31,52.3-1,3.65-.9,7,1,10.27.14,1.68-.29,3.72.52,5,4.34,6.69,9,13.18,13.53,19.75v17.59l2.79.42c0,3.55,0,7.11,0,10.67-5.59.19-11,.71-14.22,6.31-13.62.37-27.26.61-40.69,3l0,1.21,4.6,1c-1.1,6,1.09,9.1,7.28,10.12a98.79,98.79,0,0,0,10.52,1.43c11,.62,22,1.09,33.06,1.51,9,.34,17.92.61,26.88.74,21.53.31,43,.7,64.57.7,20.29,0,40.58-.41,60.87-.69,13.77-.19,27.53-.48,41.29-.73,12.91-.24,25.81-.45,38.71-.76,5.39-.13,10.8-.23,16.15-.82a103.57,103.57,0,0,0,13.6-2.61c2.67-.67,4.75-2.46,4.27-5.6s-2.56-4.92-5.87-5a44.23,44.23,0,0,0-6.34-1.43c-10.69-.86-21.39-1.55-32.08-2.3-1.15-1.18-2.11-2.67-3.48-3.46-2.55-1.48-2.61-3.44-2.18-6,.81-4.68,1.51-9.4,1.9-14.14.31-3.79.12-7.63.11-11.45,0-14.6.26-29.21-.25-43.8-.43-12.34-2-24.64-2.7-37a69,69,0,0,1,4.62-29.2c1.74-4.52,4.24-7.36,8.62-9.24,8.85-3.81,16.11-9.34,19.27-19.08,1.59-4.9,3.6-9.66,5.5-14.45,2-5,3.49-6,8.59-5.14,8.28,1.36,15.45-.83,21.89-6,1.68-1.36,3.59-2.43,5.4-3.64v75.43c-.62-.5-1.46-.89-1.83-1.54-4.71-8.26-12.19-12.83-20.91-15.67-1.14-.37-2.62.27-3.94.45-6-1.65-11.91-3.4-18.76-2.11.37,4,.71,7.8,1.06,11.6-.4,4.12,1.82,6.73,5.23,8.33,2,1,4.4,1.21,6.56,1.94s5.3.44,6,3.75c-3.69,1.19-7.3,2.74-11.07,3.5-7.05,1.42-11.74,5.21-14,12.3l4.1,2.32c-.22,1-.38,2-.68,3-.42,1.36-.95,2.67-1.43,4-6.68-1.21-9.77.06-10.95,5.69-.53,2.52,1,5.47,1.6,8.22-.22,1.12-.84,2.34-.58,3.33,1.11,4.22,8.9,9.08,13.15,8.41,8.1-1.28,13.15-8.23,11.44-16.29-.57-2.69.43-4.13,2.23-5.64a28.68,28.68,0,0,1,13.11-6.12,25.39,25.39,0,0,0,17.46-12.34C490.72,317.07,491.75,316.71,492.5,316.18ZM398.57,166.72c-7.44.26-10.07,5-6.56,11.69a11.92,11.92,0,0,0-.05,3.47,11.5,11.5,0,0,0,13.76,7.57,11,11,0,0,0,7.87-13.35c-1.59-6.61-.49-8.5,6.07-12.8,2.15-1.41,4.5-2.52,6.65-3.92,6.94-4.51,10.23-11,9-19.15-1.29-8.74-7.55-13.36-15.48-15.94-.81-.27-1.92.37-2.89.59a39.47,39.47,0,0,0-19.12-2.28c-5.62.65-5.7.9-4.46,6.33.32,1.43.58,2.87.87,4.3,0,5.35,3.68,8.85,9.29,9.25,1.82.13,3.57,1.26,5.36,1.93-1.45.6-3,1.08-4.34,1.81-5.32,2.78-9.34,6.51-9.39,13.23,1.26.38,2.41.72,3.56,1.08C398.69,162.59,398.63,164.66,398.57,166.72ZM142,338.41c-8.2-.2-11,3.52-8,10.84-1.37,8.51,8.77,13.9,15,11.16,5.57-2.45,8.25-7.34,6.68-13.8-.72-3-.27-5.47,2.1-7.29a51.58,51.58,0,0,1,8.19-5.45c7.75-3.89,12.67-9.83,12.87-18.59s-8.16-17.57-16.9-18.91c-.69-.1-1.49.48-2.24.74-7.46-2.56-15-3.47-23.18-1.25.64,3.21,1.23,6.19,1.82,9.17,0,5.73,3.4,9.16,9.13,9.76,1.44.15,2.77,1.32,4.15,2-6.61,2.6-13.06,5.35-13.61,14l3.45,1.25C141.6,334.2,141.78,336.3,142,338.41ZM258.69,190.73l-1.43-.83c.71-1.6,1.37-3.23,2.13-4.81,1-2.05,3-4.1,2.94-6.09-.27-6.77,3.25-11.59,7-16.5,6.16-8,11.18-16.41,9.41-27.15-1.81-11-7.66-19.93-19-23.48-1-.3-2.17.23-3.27.37-17.37-5.93-42.88,1.52-53.52,15.75.54.71,1.11,1.48,1.68,2.25l1.74,2.37c.15,1.83,0,3.79.56,5.46a13.83,13.83,0,0,0,3,4.17c5.62,6.28,10,7.76,17.39,2.58a51.52,51.52,0,0,1,12.37-6.35c2.85-1,6.63-2,8.86,1.87-2.7,4.2-5.18,8.55-8.14,12.55-4.36,5.9-7.76,12-6.7,19.67.37,2.67,1,5.29,1.56,7.94-.36,4.12,1.44,6.89,5.18,8.58a33.55,33.55,0,0,1,3.57,2.16c-3.35,2.3-5.51,5.41-5,9.54.33,2.74,1.51,5.37,2.3,8.06-.27.85-1,2-.74,2.49,2.3,3.25,4.23,7.24,7.38,9.32,6.87,4.54,18.19,1.76,22.46-4.64,5.56-8.34,3-17.94-4-23.27C264.4,191.23,262,188.26,258.69,190.73Z" transform="translate(-122 -89.89)"/><path class="cls-2" d="M492.5,225.22c-1.81,1.21-3.72,2.28-5.4,3.64-6.44,5.22-13.61,7.41-21.89,6-5.1-.84-6.63.19-8.59,5.14-1.9,4.79-3.91,9.55-5.5,14.45-3.16,9.74-10.42,15.27-19.27,19.08-4.38,1.88-6.88,4.72-8.62,9.24a69,69,0,0,0-4.62,29.2c.7,12.33,2.27,24.63,2.7,37,.51,14.59.21,29.2.25,43.8,0,3.82.2,7.66-.11,11.45-.39,4.74-1.09,9.46-1.9,14.14-.43,2.54-.37,4.5,2.18,6,1.37.79,2.33,2.28,3.48,3.46l-6.75.07c-1.49-1.63-3-3.25-4.49-4.88,4.7-8.13,4.9-17,4.63-26.06-.09-2.75.42-5.52.55-8.28.31-6.74,1-13.51.72-20.22-.6-12.58-1.85-25.13-2.79-37.69-.34-4.52-.81-9.05-.79-13.58,0-8.16-.12-16.38.8-24.47.58-5.12,2.66-10.17,4.68-15,.85-2,3.13-3.62,5-5,1.56-1.13,3.59-1.58,5.32-2.5,7.17-3.82,13.49-8.26,16.06-16.74,1.94-6.42,4.74-12.59,7.37-18.78a4.83,4.83,0,0,1,3-2.65,21.6,21.6,0,0,1,7.35.06c8.07,1.54,14.68-1.42,20.53-6.46,2.32-2,4.06-4.68,6.06-7.05Z" transform="translate(-122 -89.89)"/><path class="cls-3" d="M492.5,218.57c-2,2.37-3.74,5.05-6.06,7.05-5.85,5-12.46,8-20.53,6.46a21.6,21.6,0,0,0-7.35-.06,4.83,4.83,0,0,0-3,2.65c-2.63,6.19-5.43,12.36-7.37,18.78-2.57,8.48-8.89,12.92-16.06,16.74-1.73.92-3.76,1.37-5.32,2.5-1.91,1.4-4.19,3-5,5-2,4.83-4.1,9.88-4.68,15-.92,8.09-.76,16.31-.8,24.47,0,4.53.45,9.06.79,13.58.94,12.56,2.19,25.11,2.79,37.69.32,6.71-.41,13.48-.72,20.22-.13,2.76-.64,5.53-.55,8.28.27,9,.07,17.93-4.63,26.06l-2.16-.87c0-.81.05-1.62.08-2.43V419l1.48-1.48v-.74c2.68-.9,3.28-2.68,2.22-5.18q0-6.29,0-12.56c2.8-3,1.5-6.34.73-9.62v-3.7c.49-.7,1.4-1.4,1.41-2.11q.17-10.09,0-20.19c0-.71-.92-1.41-1.41-2.11v-1.48c.81-2.1,2-4.25-.73-5.92,0-2.95,0-5.91,0-8.87v-2.21c-.25-2.22-.49-4.44-.74-6.66.74-2.33,2-4.71-.73-6.66V328c.77-2.57,2.09-5.19-.73-7.4v-3c.76-2.57,2.08-5.19-.74-7.4v-6.64c2.28-.83,1.75-2.22.73-3.71.25-1.23.49-2.46.74-3.69l.73-1.49v-2.21l1.47-5.18.75-3.69,3.69-8.88c0-.25,0-.49,0-.74l2.22-2.22h.73l1.49-1.47h1.47l3-2.21,2.2,0,1.49-1.46,2.21-.75,2.23-2.21.74-.74,3.69-3,.74-1.48,1.48-1.48v-1.47q1.49-2.6,2.95-5.19v-2.21c1-2,2-4,2.95-5.92,0-.49,0-1,0-1.48.25-.49.49-1,.74-1.48,3-10.45,4.07-11.31,14.68-9.58,4.3.7,8.22-.18,12.16-1.48,7.16-2.38,12.6-10.38,13.19-17.88.62-7.84-2.19-14.76-4.94-21.65-1.27-3.18-4.14-5.72-6.29-8.55l-5.08-7.43c1.4.57,3.12.79,4.16,1.75,5.78,5.37,9,12.35,12.06,19.47a7.6,7.6,0,0,0,1.47,1.72Z" transform="translate(-122 -89.89)"/><path class="cls-4" d="M492.5,316.18c-.75.53-1.78.89-2.22,1.62a25.39,25.39,0,0,1-17.46,12.34,28.68,28.68,0,0,0-13.11,6.12c-1.8,1.51-2.8,2.95-2.23,5.64,1.71,8.06-3.34,15-11.44,16.29-4.25.67-12-4.19-13.15-8.41-.26-1,.36-2.21.58-3.33l1.34.22c.61,4.73,3.37,7.53,7.93,8.5,4.2.88,7.86-.21,10.42-3.78,2.18-3,3.15-6.2,1.39-10-2.14-4.58-1.8-4.9,2.7-7.3a32.92,32.92,0,0,0,4.19-3.14h.74l7.4-3.68h2.21c3.56.2,6.71-.56,8.88-3.7h.74l1.48-1.48,2.22-2.22,1.47-1.48c0-.24,0-.49,0-.74.74-1,1.47-2,2.21-3,0-1.23,0-2.46,0-3.69,2.26-2.17,1.91-6.43-.74-8.88v-1.48c-.74-1-1.47-2-2.21-3l-.75-1.47-1.47-1.48-.74-.74-3-2.22h0l-3.85-2.16-10.26-5.73c1.32-.18,2.8-.82,3.94-.45,8.72,2.84,16.2,7.41,20.91,15.67.37.65,1.21,1,1.83,1.54Z" transform="translate(-122 -89.89)"/><path class="cls-2" d="M492.5,195.64a7.6,7.6,0,0,1-1.47-1.72c-3-7.12-6.28-14.1-12.06-19.47-1-1-2.76-1.18-4.16-1.75l-3.13-3.64c4.29-1.46,7.51.71,9.88,3.67,3.34,4.17,6.06,8.83,9.1,13.24a9.28,9.28,0,0,0,1.84,1.54Z" transform="translate(-122 -89.89)"/><path class="cls-5" d="M364.57,413.13c-2.63,0-2.16-1.39-1.61-3.12,3.84-12.16,7.1-24.55,11.58-36.46,3.92-10.42,3.12-20.92,3.11-31.56,0-8.81-.14-17.71,1.07-26.39.71-5.11,3.91-9.88,6-14.81l23.1-1c.12.52.23,1,.35,1.55.61,9.56,1.18,19.13,1.84,28.69.81,11.76,2.31,23.52,2.39,35.28.11,14.61-.9,29.23-1.48,43.85a28.58,28.58,0,0,1-.64,3.81l-5.54.33-8.45-.11-3.65-.29c-.11-1.33-.21-2.51-.31-3.69.08-3.17.15-6.33.22-9.5V381.12c-.26.69-.79,1.87-1.17,3.09-2.83,9-5.66,18-8.41,27-.55,1.83-1.28,3.13-3.44,2.89l-8.5-.6Z" transform="translate(-122 -89.89)"/><path class="cls-6" d="M263.25,413.85c-.3-1.17-1-2.4-.82-3.5q4.59-32.89,9.34-65.76,2.42-16.79,4.85-33.57l.69-4.45a.39.39,0,0,0,.23-.44,9.69,9.69,0,0,1,8,.82c4.73,2.48,9.67,4.59,14.43,7,1.77.9,3.15.9,4.49-.56,1.92,3.16,2.8,7.4,7.75,7.36,0,.61.08,1.23,0,1.84l-3.15,60.32c-.53,10.15-1.05,20.3-1.58,30.59l-4.25.33-8.19,0-2.28,0-2.88-.21c-.07-1.18-.13-2.35-.2-3.53l.77-14.05.21-8.91V365.09l-10,48.39-5.65.36H263.25ZM300,323.44l-1-.19q-3.69,17.64-7.37,35.28l1,.21Q296.3,341.09,300,323.44Z" transform="translate(-122 -89.89)"/><path class="cls-7" d="M202.57,411.14l-2.79-.42V393.13c.13-1.93,1.09-4.43.23-5.67-4.5-6.53-9.47-12.73-14.28-19-1.89-3.27-1.94-6.62-1-10.27,4.52-17.41,8.88-34.86,13.31-52.3.25-1,.51-2,.77-3l.93-2.38,24.2,1c0,5.29.1,10.57.09,15.86,0,3.26,1,6.92-3.57,8.42-.8.25-1.37,2-1.6,3.12-.88,4.22,2.87,8.83,8.76,6.63-4.51,14.58-5.33,29.75-7.17,44.75l1.43,1.71,2.13,2.31c2.25,3.22,4.59,6.39,6.68,9.71.57.9.37,2.28.52,3.44l-4,3.75-6.09,5.94-2.21,1.5-3.14-1.41.87,2.83-5.86,1.07Zm14.15-8.38.53.26.62-1.22a4.33,4.33,0,0,0-.56-.25C217.09,401.94,216.91,402.35,216.72,402.76Zm2.32-8.83.53-.06-.23-1.52-.43,0Zm-1.12,10.82h-.31v1.09h.31Zm2.18-18.68c-.21.36-.44.58-.39.71s.33.25.52.37Zm-1.71,14.05c.21-.36.44-.59.39-.71s-.33-.25-.51-.37Z" transform="translate(-122 -89.89)"/><path class="cls-8" d="M304.48,313.41c-1.34,1.46-2.72,1.46-4.49.56-4.76-2.43-9.7-4.54-14.43-7a9.69,9.69,0,0,0-8-.82c.09-3.19-2.05-4.21-4.65-4.78l-5.16-3.73c.27-4.82,0-9.76.94-14.44a98.74,98.74,0,0,1,5.26-16.82c2.43-6,7.83-8.83,13.64-10.88.81,3.45,2.79,5.93,6.5,5.55,3.87-.39,5.37-3.34,5.57-7l5.78,1.48,3.63.78c6.86,2.65,13.71,5.34,20.59,7.93,1.77.67,2.55-.23,2.38-2l2.4-19.95,2.2-1.57,7.87.65a11,11,0,0,1,.66,3.15c-.87,9-1.71,18-2.83,27-.83,6.59-.95,9.16-8.09,9.26L322.41,277a76.48,76.48,0,0,0-8.56-3c-.87-.21-2.6.94-3.07,1.89s-.21,2.64-.08,4c.9,8.72,1.85,17.44,2.78,26.16C307.19,305.55,306,306.57,304.48,313.41Z" transform="translate(-122 -89.89)"/><path class="cls-9" d="M418.46,427.89l6.75-.07c10.69.75,21.39,1.44,32.08,2.3a44.23,44.23,0,0,1,6.34,1.43l-1.53,1.29-5.11.82-4.42.23-8.13.68-19.22.84c-11.79.4-23.58.9-35.37,1.17-14.89.35-29.78.73-44.67.71-27.95,0-55.91-.25-83.86-.51-22.77-.2-45.55-.57-68.32-.86l-17.74-.75-11.1-.67-5.93-.61-5.93-.63-4.6-1,0-1.21c13.43-2.35,27.07-2.59,40.69-3-.84,2.16.55,2.09,2,2.08,5.66,0,11.32-.15,17,.06,2.45.08,3.33-.8,3.25-3.06l1.62-.13,3-.05,3.66.08,1,3.11L225,427l11.69-.31,4.39-.17,5.17-.15,18.6,0c.05.94.1,1.88.15,2.9h22.86l-.8-3h7.27l.41,3h22.46c-.3-1.11-.55-2-.79-2.93l4.56-.3,38.68.37,8.48.11c-.1.9-.21,1.8-.3,2.62h23.82c-.15-.86-.26-1.45-.36-2l4.31,0c.76.78,1.49,2.22,2.27,2.25,6.27.18,12.55.14,18.82,0C417.28,429.37,417.87,428.41,418.46,427.89Z" transform="translate(-122 -89.89)"/><path class="cls-6" d="M407.81,299.84l-23.1,1q-1.21-6-2.42-12l-.93-6.63-.84-5.16-1.83-6.72c.21-1,.41-2,.62-2.94q1.23-2.16,2.48-4.32l8.24-4.38,9.21-4.74,6.77-3.4c2.86-.5,3.89-2.49,4.12-5.12.11-1,.21-2.07.31-3.1q2-5.91,4-11.81c.2-.76.39-1.52.58-2.28.32-1,.65-1.95,1-2.92,1.14-1.74.2-5.3,4.06-4.65l5.11.59,3,.74-1.06,5.78c-1.95,7.47-3.9,14.94-6.05,23.16L426,249c3.3-.88,3-3.95,3.8-6.32l9-19,2.61.53,5.07,1.47c3.58.43,1.73,2.74,1.54,4.47l-4.38,11.27c-1,2.47-2.38,4.86-3,7.43-1.46,5.73-5.23,9.3-10.26,11.78-5.47,2.7-11,5.26-15.75,7.51-.68,3.72-1.12,7.15-2,10.47-.71,2.75-2.25,5.31-2.83,8.07C408.87,291.05,408.45,295.47,407.81,299.84Z" transform="translate(-122 -89.89)"/><path class="cls-10" d="M206.42,132.61l-1.74-2.37c-.57-.77-1.14-1.54-1.68-2.25,10.64-14.23,36.15-21.68,53.52-15.76l6.64,5.06,3,4.42q1.15,3.32,2.33,6.63c.18,3.43.35,6.86.53,10.3-2.61,4.79-5,9.7-7.89,14.34-2.1,3.41-4.87,6.41-7.16,9.72a9.85,9.85,0,0,0-1.12,10l.43,3.62-11.61,3.46-2.1.43-1.49.54-2.8-.28c-.53-2.65-1.19-5.27-1.56-7.94-1.06-7.66,2.34-13.77,6.7-19.67,3-4,5.44-8.35,8.14-12.55.15-2,.31-4,.46-6.05-.9-1.55-1.8-3.09-2.69-4.64-1.88-.71-3.75-2-5.62-2.05-9.69,0-17.28,4.81-24.22,11l-2.06,1.67Z" transform="translate(-122 -89.89)"/><path class="cls-11" d="M325.36,207.53c-3.53-8.05-3-15.65,2.31-22.84,3-4.12,5.93-8.36,8.89-12.54.3-1.15.61-2.3.92-3.46-.1-1.37-.19-2.74-.28-4.11l-1.47-3c-2.64-.9-5.37-2.79-7.88-2.53-7.19.76-13.46,4.11-18.83,9l-2.12,1.71-3.72-1.54-5.13-6-2.52-3.64c14-11.29,28.77-19.27,47.53-13.85l5.74,3.64,3.71,4.44,2.26,5.14,1,10.29c-2.67,5-5.17,10.13-8.06,15-1.73,2.92-4.16,5.41-6.11,8.21a9.21,9.21,0,0,0-.74,9.37c.47,2-.19,3.12-2.33,3.55-2.71.55-5.36,1.36-8,2l-2.15.41Z" transform="translate(-122 -89.89)"/><path class="cls-11" d="M471.68,169.06l3.13,3.64,5.08,7.43,6.68,20c0,1.35,0,2.7-.09,4-.66,8.21-3.81,15-11.57,18.72a23,23,0,0,1-20.24.16l-8.46-5.3-4.62-3.16L433.87,212l-6.41,1.34-2.4-7.3c-.73-2.56-1.47-5.12-2.24-7.83,7-3.49,13.91-3.58,20.84-.2,4,2.71,7.93,5.66,12.16,8,2.06,1.14,4.74,1.17,7.14,1.71,5.52-.77,7.44-3,7.31-8.35-.4-7.79-4.67-13.63-9.62-19.14l-2.77-3.41L468,166Z" transform="translate(-122 -89.89)"/><path class="cls-11" d="M159.71,248.15C157.09,242,157.4,236,161,230.4c2-3.05,4.79-5.52,7.11-8.35s4.49-5.73,6.72-8.6c.22-1,.43-2,.65-2.95l-.2-3-2.06-3.39c-2-.84-4.07-2.35-6.13-2.39-7.1-.15-13.37,2.62-19.19,6.52l-2.23,1.45-1.4.6-5.9-8.16L136,197.93c10.23-7.89,21.91-11.55,34.78-11.8L184,190l5.33,4.85,3,5.92q.51,4.06,1,8.13c-.32,6.22-3.24,11.22-7.41,15.61a75.11,75.11,0,0,1-6.24,6.25c-4.73,3.92-6.09,8.94-4.93,14.91l-6.89,1.2-2.94.53-3,.28Z" transform="translate(-122 -89.89)"/><path class="cls-2" d="M348.8,148.4l-5.74-3.64c3.42-2,6.17.44,8.76,1.78,9.11,4.75,13.06,13.11,14.09,22.8.6,5.6-1.48,10.93-4.45,15.68-2.54,4-5.68,7.71-8.12,11.8-1.39,2.33-1.94,5.16-2.82,7.79-.78,2.3-1.21,4.76-2.3,6.89s-.53,3.47,1.23,4.67c10.21,7,12.79,13.23,8.78,25.05-3.16,9.33-3.88,18.86-4.89,28.48-.56,5.27-2.4,10.39-3.63,15.59-.28,1.18-.46,2.38-.68,3.57l-10.31,3a8,8,0,0,0-2-1.61c-3.25-1.09-6.56-2-9.84-3-3.56-1.09-5.43.29-5.13,4.08.38,4.75.58,9.57,1.65,14.18.7,3,2.77,5.67,4.33,8.43,2.69,4.77,1.4,9.13-1.71,13-2.64,3.25-3.51,6.71-3.66,10.83-.52,14.19-1.4,28.37-2.15,42.56-.48,9-.94,18.09-1.48,27.13a45.34,45.34,0,0,1-1,8.74c-.91,3.51-.68,6.26,2.67,8.26.38.23.39,1.09.57,1.66l-4.56.3-4.34-3.74c.75-2.45,1.9-4.86,2.16-7.36q1.21-11.38,1.84-22.81c1-17.72,1.81-35.45,2.63-53.18.22-4.73,1-9.19,3.9-13.15,4-5.36,3.87-8.52.31-14.41a17,17,0,0,1-2.61-5.94c-.83-5.69-1.13-11.44-1.78-17.15-.51-4.5,1.7-6.62,6-5.39,4,1.14,8,2.39,11.93,3.69,4.25,1.4,9.17-.12,11.06-4.16A26.71,26.71,0,0,0,349.7,274c1.12-12,1.83-24.07,6.23-35.62a15.09,15.09,0,0,0-3-16.1c-1-1.09-2.87-1.4-4.34-2.07a10.7,10.7,0,0,0-9.21-5.38c.33-.46.57-1.17,1-1.34,5.18-1.92,8-5.45,7.9-11.12a4.1,4.1,0,0,1,.57-2.11c2.85-4.52,5.5-9.2,8.7-13.47,7.1-9.48,7.74-21.83.89-31.19C356.1,152.31,353.39,149,348.8,148.4Z" transform="translate(-122 -89.89)"/><path class="cls-12" d="M465.82,283.89l10.26,5.73,2.26,2.2,3.6,6,.87,5.05c-.16.33-.46.66-.45,1,.13,7.64-6.71,14.42-13.75,15.6-2.9.49-5.72,1.37-8.61,1.9-3.88.7-6.46,2.78-7.6,6.59l-2.8.18-2.22-1.43-2.45-1.14-4.1-2.31c2.28-7.09,7-10.88,14-12.3,3.77-.76,7.38-2.31,11.07-3.5l2.27-2.92.42-3.81c-3.43-5.92-9.28-6.83-15.31-7.4l-2.23.11h-2.95c-.35-3.8-.69-7.6-1.06-11.6C453.91,280.49,459.86,282.24,465.82,283.89Z" transform="translate(-122 -89.89)"/><path class="cls-4" d="M152.3,433.26l5.93.63c-1.88,4.18-.42,6.75,4.44,7.22,9,.86,18,1.82,27,2.2,12.64.53,25.3.53,37.94.82,7.66.18,15.32.49,23,.72,8.84.26,17.67.62,26.5.7,4.52,0,9.05-.68,13.57-.65,16,.14,31.95.53,47.92.65,5.26,0,10.52-.59,15.79-.66,8.92-.12,17.85.08,26.76-.1,2.61-.05,5.2-.91,7.8-1.4h4.43c4.7.17,9.4.35,14.1.44.23,0,.47-.76.71-1.17h2.93c2.23,3.26,4.45.49,6.67,0H420c4.2.16,8.41.34,12.62.43.22,0,.46-.76.69-1.17h1.48c2.5.24,5,.64,7.5.65.95,0,1.9-.9,2.86-1.39h2.21c3.21,0,6.48.34,9.62-.13a13.28,13.28,0,0,0,6.4-2.9c.57-.49-.78-3.22-1.25-4.94a2.08,2.08,0,0,1-.06-.36l1.53-1.29c3.31.08,5.38,1.81,5.87,5s-1.6,4.93-4.27,5.6a103.57,103.57,0,0,1-13.6,2.61c-5.35.59-10.76.69-16.15.82-12.9.31-25.8.52-38.71.76-13.76.25-27.52.54-41.29.73-20.29.28-40.58.7-60.87.69-21.52,0-43-.39-64.57-.7-9-.13-17.92-.4-26.88-.74-11-.42-22-.89-33.06-1.51a98.79,98.79,0,0,1-10.52-1.43C153.39,442.36,151.2,439.25,152.3,433.26Z" transform="translate(-122 -89.89)"/><path class="cls-13" d="M246.24,426.33l-5.17.15c1.55-4.87.06-9-2.63-13.13-1.5-2.32-2.79-5.65-2.34-8.2,1-5.66-1.45-9.61-4.43-13.77-2.78-3.88-5.17-7.93-4-13.19.85-3.8,1-7.75,1.59-11.61,1.16-7.08,1.48-14.5,3.92-21.12,3.22-8.7,4.43-17.58,4.79-26.55.53-13.15.39-26.35,0-39.51-.14-5-1.44-10.06-7.23-12-2.25-4.19-6-6.2-10.44-7.25a18,18,0,0,0,.73-2.84c.56-6,3.91-9.69,9.14-12.26a30.84,30.84,0,0,0,6.42-4.66c3.44-3,2.91-12.32-2.88-13.66l-3.23-5.36c1-.16,2.22-.72,3.09-.42,6.05,2.1,9.08,7,9.47,12.85a13.17,13.17,0,0,1-6,12.33c-3.17,2.06-6.63,3.82-9.38,6.35-3.9,3.59-2.88,7.89,2.09,9.74a18.56,18.56,0,0,1,11.45,17.21c-.36,11.28.69,22.59.46,33.87a170.3,170.3,0,0,1-2.31,24.8c-1,5.72-3.9,11.1-5,16.82A176.92,176.92,0,0,0,231,380.26c-.15,3.27,2.06,7,4.08,9.94,3.22,4.67,6,9,4.67,15.18-.42,1.93.91,4.49,2,6.43C244.38,416.35,246.68,420.9,246.24,426.33Z" transform="translate(-122 -89.89)"/><path class="cls-14" d="M184,190l-13.18-3.91c1.08-2.89,3.58-1.57,5.35-1.5,12.77.47,24.77,7.67,28,20.8a34.13,34.13,0,0,1-.63,18.17,42.31,42.31,0,0,0-.93,5.77c-5.65.94-6.43,1.92-5.19,6.52q-1.41,3.44-2.8,6.87c-.26.64-.87,1.4-.7,1.91.85,2.61,1.9,5.15,2.88,7.71-.14,4.29,2.79,7,5.23,9.89-5.28,5.6-8.52,11.59-3.86,19.22.33.54.11,1.41.15,2.12-3.19,1-6.7,1.73-8.52-1.74-1-1.89-.66-4.71-.3-7,1.11-7.18-1.93-13.39-8.59-16-3.15-1.23-2.72-2.1-1.15-4.68,3-4.88,5.13-10.24,7.62-15.4,0,0-.18-.15-.28-.23v-1.47l1.48-1.48H190a3.92,3.92,0,0,0,1.38-.43c6.9-5.84,13.45-16.93,10.21-28.17-2.4-8.38-7.16-14.43-15.53-17.31C185.51,189.47,184.7,189.9,184,190Z" transform="translate(-122 -89.89)"/><path class="cls-12" d="M398.75,160.52l-3.57-1.07c.05-6.72,4.07-10.45,9.39-13.23,1.38-.73,2.89-1.21,4.34-1.81l4.44-4.23.63-2.94c-1.75-4.38-6.61-6.13-13.19-4.75l-3.7.4-2.83.34c-.29-1.43-.55-2.87-.87-4.3-1.24-5.43-1.16-5.68,4.46-6.33A39.47,39.47,0,0,1,417,124.88l5.76,4.31q1.32,2.52,2.63,5.05c.17,1,.34,2,.5,2.95-.52,7.52-4.28,12.58-11.43,15.1-1.15.4-2.2,1.11-3.34,1.56-3.54,1.39-5.65,3.83-5.88,7.72l-2.91-.09Z" transform="translate(-122 -89.89)"/><path class="cls-12" d="M141.41,332.09,138,330.84c.55-8.68,7-11.43,13.61-14l4.59-3.4,1.17-3.85c-1.15-1.32-2.09-3.4-3.5-3.8-3.09-.88-6.42-.91-9.66-1.29l-3,.44-2.91.12c-.59-3-1.18-6-1.82-9.17,8.19-2.22,15.72-1.31,23.18,1.25l6,4.29,2.8,4.5c.14,1.45.29,2.9.44,4.35-.25,6.59-3.57,11-9.57,13.52-1.92.81-3.8,1.71-5.75,2.44-3.27,1.24-5.27,3.45-5.65,7h-3Z" transform="translate(-122 -89.89)"/><path class="cls-15" d="M197.4,235.89c-1.24-4.6-.46-5.58,5.19-6.52l5.93-.61,4.29.77.13-2.83c3.85-8.38,9.74-10.18,17.54-5.36l3.23,5.36,0,5.18c-2.5,6.14-7,8.71-12.94,7.62-1.93,3.42-3.65,6.45-5.34,9.49-.63,1.13-1.18,2.31-1.77,3.47l-5.39-4.08c3.51-1.1,5.13-2.57,3.94-5.19-1.38-3-3.78-1.68-5.85-.88l-7.38-9Z" transform="translate(-122 -89.89)"/><path class="cls-12" d="M241.32,208.84c-.79-2.69-2-5.32-2.3-8.06-.49-4.13,1.67-7.24,5-9.54,4.28-1.68,8.6-3,13.22-1.34l1.43.83,3.06,3.44q.84,2.57,1.69,5.14c0,1.48,0,3,.05,4.45-1.33,5.61-5.4,8.06-10.61,9.18l-3.75.25-4.38-1.2Z" transform="translate(-122 -89.89)"/><path class="cls-11" d="M339.42,214.82a10.7,10.7,0,0,1,9.21,5.38l1.23,3.53c.06,1.23.11,2.46.17,3.69l-1.17,4.09c-3.38,4.33-8.08,5.26-13.2,5.11l-5.81-3.35c-1.56-4.35-3.64-8.72-.69-13.26a23.52,23.52,0,0,1,2.85-3.07Z" transform="translate(-122 -89.89)"/><path class="cls-16" d="M299.64,254c-.2,3.65-1.7,6.6-5.57,7-3.71.38-5.69-2.1-6.5-5.55.22-1.46.44-2.91.65-4.36.31-1.64.61-3.28.92-4.91q1.75-1.44,3.52-2.87l-1.45-.17c-1-1.71-3.15-3.8-2.74-5.06,1.78-5.43,5-.56,7.49-.22l1.31-5.25,7.33-2.11a23.63,23.63,0,0,0,1,3.84c.76,1.69,1.78,3.25,2.7,4.87a6.05,6.05,0,0,0-.78,1.57c-1.13,7.34-1.54,7.8-8.48,9.29C299.26,251.41,299.45,252.72,299.64,254Z" transform="translate(-122 -89.89)"/><path class="cls-11" d="M397.14,220c-.33-.92-.63-1.84-1-2.75-1.7-4.38-2.28-8.81,1.62-12.21,4.08-3.56,8.87-4.53,14-1.89l3.92,5.83c.26,1.73.53,3.45.8,5.18-.58,5.91-4.8,8.1-9.77,9.51l-3.64,0Z" transform="translate(-122 -89.89)"/><path class="cls-11" d="M161.47,273.92c-3.05-7.14-2.45-11.75,2.08-15.75a3.73,3.73,0,0,1,1.34-.46l8.14-.82c3.75.45,5.83,2.93,7.39,6.05.23,2,.45,3.94.68,5.92a11,11,0,0,1-5.94,7.81c-4,1-7.92,1.42-11.69-.75Z" transform="translate(-122 -89.89)"/><path class="cls-2" d="M257.26,189.9c-4.62-1.68-8.94-.34-13.22,1.34a33.55,33.55,0,0,0-3.57-2.16c-3.74-1.69-5.54-4.46-5.18-8.58l2.8.28c.45,3.81,3,5.87,6.4,5.84,3.21,0,6.45-1.1,9.61-1.93a6.92,6.92,0,0,0,5.36-7.1c0-5.93,2.67-10.57,6.14-15,1.89-2.41,3.55-5,5.39-7.45,7.75-10.36,6.72-27.5-4.07-36a19.62,19.62,0,0,0-3.76-1.85l-6.64-5.06c1.1-.13,2.31-.66,3.27-.36,11.32,3.55,17.17,12.45,19,23.48,1.77,10.74-3.25,19.17-9.41,27.15-3.78,4.91-7.3,9.73-7,16.5.08,2-1.94,4-2.94,6.09C258.63,186.67,258,188.3,257.26,189.9Z" transform="translate(-122 -89.89)"/><path class="cls-4" d="M422.73,129.19,417,124.88c1-.22,2.08-.86,2.89-.59,7.93,2.58,14.19,7.2,15.48,15.94,1.2,8.1-2.09,14.64-9,19.15-2.15,1.4-4.5,2.51-6.65,3.92-6.56,4.3-7.66,6.19-6.07,12.8a11,11,0,0,1-7.87,13.35A11.5,11.5,0,0,1,392,181.88a11.92,11.92,0,0,1,.05-3.47l2.86,1.79c.21,3.6,2.33,5.55,5.64,6.34,3.68.87,6.91.05,9.13-3.15a7.73,7.73,0,0,0,.1-9.32c-2.11-3-1.81-5.2,1-7.19,4.29-3,8.51-6.2,13-8.9,6.21-3.73,9.13-9,8.84-16.18C432.36,136.09,427.32,129.69,422.73,129.19Z" transform="translate(-122 -89.89)"/><path class="cls-12" d="M338.72,291.88l10.31-3,7.91,1.54,3.18,3.6.81,2.95c.36,4-1.45,7.09-4.24,9.65-2.41,2.22-3.73,4.75-3.23,8.07l-4.44.86c-.8-.44-2.26-.84-2.29-1.33a46.45,46.45,0,0,1,.37-6.1l2-2.87,2.16-2.3c1.75-1.59,2.95-3.4,1.33-5.68s-3.65-2.08-5.83-.91l-5.27,2.75-2,.75-3.19-4.79Z" transform="translate(-122 -89.89)"/><path class="cls-4" d="M165.62,301.4l-6-4.29c.75-.26,1.55-.84,2.24-.74,8.74,1.34,17.09,10.28,16.9,18.91s-5.12,14.7-12.87,18.59a51.58,51.58,0,0,0-8.19,5.45c-2.37,1.82-2.82,4.32-2.1,7.29,1.57,6.46-1.11,11.35-6.68,13.8-6.24,2.74-16.38-2.65-15-11.16l2.84,1.8c0,5.17,6.74,8.48,10.81,6.82,4.83-2,6.93-6.67,4.54-11.71-1.08-2.28-2.45-4.65.19-6.6a133.73,133.73,0,0,1,11.23-7.5c4.24-2.51,8.5-4.81,10.78-9.55C178.36,314.12,173.86,303.09,165.62,301.4Z" transform="translate(-122 -89.89)"/><path class="cls-15" d="M379.31,267.37c-.21,1-.41,2-.62,2.94L377,274.53l-3.85,3.06-3.44,1.55c-.37-.7-1.25-1.69-1.05-2.05,2.06-3.57.91-6.85-.66-10.13-.26-.55-.61-1-.92-1.58-6-10.21-2.77-16.55,9.2-18.16l1.39,3c-2.85,2.21-4.59,4.84-2.84,8.52C376.24,261.68,377.82,264.51,379.31,267.37Z" transform="translate(-122 -89.89)"/><path class="cls-15" d="M377.76,244.56c-2.05-9.69,2.45-15.73,12.17-16.54,2.34-.2,4.64-.8,7-1.21,2,1.4,3.7,2.94,2.89,5.75l-5.28-3.4a51.26,51.26,0,0,1-.33,5.24c-.74,4.28-3.3,6.23-7.4,6.5a4.41,4.41,0,0,0-3.11,2.39c-.35.88.4,2.59,1.19,3.41s2.17.75,3.34,1.1l.71,4.76-6.17-1.78Z" transform="translate(-122 -89.89)"/><path class="cls-17" d="M304.6,230.53l-7.33,2.11-15.27,4a10.23,10.23,0,0,1,4.07-12.78c4.88-2.9,9.91-3.49,14.9-.09,2.12,2.63,3.87,6.15,8.22,3.38a48.73,48.73,0,0,1,5.88-1.5c.88-.13,1.87.56,2.81.88l-8.94,2.83Z" transform="translate(-122 -89.89)"/><path class="cls-3" d="M165.62,301.4c8.24,1.69,12.74,12.72,8.71,21.11-2.28,4.74-6.54,7-10.78,9.55a133.73,133.73,0,0,0-11.23,7.5c-2.64,1.95-1.27,4.32-.19,6.6,2.39,5,.29,9.73-4.54,11.71-4.07,1.66-10.8-1.65-10.81-6.82l3.69.73c1,1.17,1.85,3,3.12,3.37,2.47.75,4.91.1,6.1-2.7,1.36-3.23.39-5.54-3.09-7.45.11-3.36-1.82-5.28-4.64-6.59-.18-2.11-.36-4.21-.55-6.32l3.52,1.11c1.79,3.92,5.27,4.86,8.84,2.53s7.39-4.73,11.15-7c4.14-2.47,7.31-5.64,8.54-10.49s-1.11-10.78-5-12.36Z" transform="translate(-122 -89.89)"/><path class="cls-18" d="M422.73,129.19c4.59.5,9.63,6.9,9.86,12.61.29,7.15-2.63,12.45-8.84,16.18-4.49,2.7-8.71,5.87-13,8.9-2.82,2-3.12,4.22-1,7.19a7.73,7.73,0,0,1-.1,9.32c-2.22,3.2-5.45,4-9.13,3.15-3.31-.79-5.43-2.74-5.64-6.34l2.2.17a4.89,4.89,0,0,0,5.85,4.62,9.09,9.09,0,0,0,5.77-4.63c1.55-3.34-.13-5.69-4.09-7.65-.38-3.63-3.12-4.9-6-6q.09-3.09.17-6.2l3.56,1c.67,3.92,2.89,5.31,6.36,3.77a29.51,29.51,0,0,0,4-2.54c2.84-1.85,5.53-4,8.56-5.47,6.78-3.27,10.66-10.12,9-17.44-.55-2.48-1.29-5.44-4.88-5.56Q424.06,131.71,422.73,129.19Z" transform="translate(-122 -89.89)"/><path class="cls-13" d="M308.94,229.34l8.94-2.83c.63.79,1.1,1.85,1.91,2.35,3,1.83,3.73,3.81,1.2,6-3.61,3.18-3.91,7-3.83,11.26,0,2-.72,4-1.17,6-.55,2.43-.62,4.91,2.11,5.86,4.56,1.59,9.27,2.78,13.92,4.14.17,1.8-.61,2.7-2.38,2-6.88-2.59-13.73-5.28-20.59-7.93.76-1.37,1.86-2.66,2.22-4.13.76-3.2,1.93-6.6,1.5-9.73C312.17,238,310.28,233.7,308.94,229.34Z" transform="translate(-122 -89.89)"/><path class="cls-12" d="M434.81,346.67l-1.34-.22c-.6-2.75-2.13-5.7-1.6-8.22,1.18-5.63,4.27-6.9,10.95-5.69l5.37,5.81-.06,3c-1.41,3.51-3.32,6.52-7.42,7.3l-3-.54Z" transform="translate(-122 -89.89)"/><path class="cls-2" d="M360.12,294l-3.18-3.6c5.62-.9,9.32,2.31,11.86,6.48,2.82,4.62,2.09,9.67-.47,14.39a10.94,10.94,0,0,1-1.2,1.86c-3.16,3.81-4.24,7.71-1.87,12.54,1.75,3.57.1,7.91-3,10.08-2.61,1.83-8.24,2-10.26-.53-1.66-2.09-2-5.2-3-7.86l3,.78c.09,2.95,1.65,5.17,4.42,5.5,1.55.19,4.26-1,4.77-2.19a9.12,9.12,0,0,0,0-6.72,7.73,7.73,0,0,1,.14-8c1.53-2.64,3.29-5.15,4.81-7.8C369.65,302.87,366.49,295.1,360.12,294Z" transform="translate(-122 -89.89)"/><path class="cls-2" d="M241.32,208.84l3.43,3.15a16,16,0,0,0,1.48,3.18c3,4,7.32,4.39,11.91,4.17a13,13,0,0,0,12-11.74c.65-5.48-3.36-12.78-8.42-13.43l-3.06-3.44c3.35-2.47,5.71.5,7.69,2,7,5.33,9.6,14.93,4,23.27-4.27,6.4-15.59,9.18-22.46,4.64-3.15-2.08-5.08-6.07-7.38-9.32C240.27,210.89,241.05,209.69,241.32,208.84Z" transform="translate(-122 -89.89)"/><path class="cls-13" d="M249,134.29c-.15,2-.31,4-.46,6.05-2.23-3.91-6-2.86-8.86-1.87a51.52,51.52,0,0,0-12.37,6.35c-7.38,5.18-11.77,3.7-17.39-2.58a13.83,13.83,0,0,1-3-4.17c-.59-1.67-.41-3.63-.56-5.46l8,7.65c1.69,3.37,4.74,4.58,8.1,2.84s6.46-4,9.84-5.67C237.59,134.82,243,132.83,249,134.29Z" transform="translate(-122 -89.89)"/><path class="cls-3" d="M360.12,294c6.37,1.1,9.53,8.87,6,15-1.52,2.65-3.28,5.16-4.81,7.8a7.73,7.73,0,0,0-.14,8,9.12,9.12,0,0,1,0,6.72c-.51,1.23-3.22,2.38-4.77,2.19-2.77-.33-4.33-2.55-4.42-5.5,4.53-1,6.14-3.77,4.13-7.14-1.52-2.58-3.94-1.86-6.22-1.61l-.87-3.86,4.44-.86c1.61,3.52,2.93,3.89,5.09,1.17a71.05,71.05,0,0,0,5.28-7.52c2.28-3.81.71-9.58-2.9-11.37Z" transform="translate(-122 -89.89)"/><path class="cls-13" d="M339.42,214.82,332,216.94a21.08,21.08,0,0,1-2.59-2.68c-1.45-2.18-2.72-4.48-4.06-6.73l2.95-.67a13.3,13.3,0,0,0,1.53,3.17,7.09,7.09,0,0,0,7.63,2.2c4.79-1.19,8.85-3.38,9.13-8.68.26-4.83,2.79-8.22,5.29-11.84,2.33-3.4,4.71-6.78,6.83-10.32,5.07-8.44,3.39-16.73-1.22-24.66-1-1.69-3.29-2.61-5-3.89l-3.71-4.44c4.59.55,7.3,3.91,9.7,7.19,6.85,9.36,6.21,21.71-.89,31.19-3.2,4.27-5.85,8.95-8.7,13.47a4.1,4.1,0,0,0-.57,2.11c.09,5.67-2.72,9.2-7.9,11.12C340,213.65,339.75,214.36,339.42,214.82Z" transform="translate(-122 -89.89)"/><path class="cls-19" d="M391.28,427.15c.1.58.21,1.17.36,2H367.82c.09-.82.2-1.72.3-2.62.43-1.73.85-3.46,1.28-5.2l.19.08.14-.16,7.94-.09,5.24.45,2.3.43Z" transform="translate(-122 -89.89)"/><path class="cls-19" d="M210.6,427.2c.08,2.26-.8,3.14-3.25,3.06-5.66-.21-11.32-.09-17-.06-1.46,0-2.85.08-2-2.08,3.19-5.6,8.63-6.12,14.22-6.31l7.49.1.15.16.21-.05.21,2.14Z" transform="translate(-122 -89.89)"/><path class="cls-19" d="M287.05,426.31l.8,3H265c-.05-1-.1-2-.15-2.9l.9-5,7.87-.2h3l3.69.67,2.22.75,2.09,1.19Z" transform="translate(-122 -89.89)"/><path class="cls-2" d="M161.47,273.92l2,2,3.67,5.44c1.08,1.55,1.86,3.51,3.3,4.58a115.73,115.73,0,0,0,11.07,7.25c5.7,3.34,11.53,6.47,17.31,9.69l-.77,3c-4.66-2.36-9.47-4.45-13.94-7.12-5.94-3.57-12.11-7-17.23-11.63-3-2.72-4.27-7.48-6.19-11.39C160.5,275.33,161.19,274.52,161.47,273.92Z" transform="translate(-122 -89.89)"/><path class="cls-12" d="M397.07,180.37l-2.2-.17L392,178.41c-3.51-6.73-.88-11.43,6.56-11.69,2.91,1.09,5.65,2.36,6,6-.09,1-.19,1.95-.29,2.93l-5,4.66Z" transform="translate(-122 -89.89)"/><path class="cls-2" d="M298.05,162.25l5.13,6a8.79,8.79,0,0,0,12.57,5.91c3.55-1.87,7.06-3.82,10.57-5.78,4-2.21,8.35-2.11,11.16.29-.31,1.16-.62,2.31-.92,3.46-2.78-4.14-6.39-1.91-9.5-.88-2.73.9-5.22,2.64-7.69,4.2-8,5.1-13.53,4.2-18.82-4C298.9,168.94,298.84,165.36,298.05,162.25Z" transform="translate(-122 -89.89)"/><path class="cls-13" d="M434.81,346.67l2.94,1.42a7.27,7.27,0,0,0,8.09,5.79c3-.3,7.23-4.43,7.46-7.2.39-4.66-1.3-7.42-5.11-8.33l-5.37-5.81c.48-1.33,1-2.64,1.43-4,.3-1,.46-2,.68-3l2.45,1.12c.44,5.16,5.11,8,10,6l4.07-1.64a32.92,32.92,0,0,1-4.19,3.14c-4.5,2.4-4.84,2.72-2.7,7.3,1.76,3.77.79,6.95-1.39,10-2.56,3.57-6.22,4.66-10.42,3.78C438.18,354.2,435.42,351.4,434.81,346.67Z" transform="translate(-122 -89.89)"/><path class="cls-12" d="M140.47,351.78l-3.69-.73-2.84-1.8c-2.93-7.32-.18-11,8-10.84,2.82,1.31,4.75,3.23,4.64,6.59C146.1,348.66,144.28,351.12,140.47,351.78Z" transform="translate(-122 -89.89)"/><path class="cls-2" d="M138.35,202.1l5.9,8.16c.74,3.17,2.75,5.1,6,4.52a65.29,65.29,0,0,0,10.71-3.14c4.78-1.77,9.53-2.85,14.54-1.14-.22,1-.43,2-.65,2.95-5.56-1.65-10.6-.13-15.55,2.36C147.36,221.8,137.88,215.56,138.35,202.1Z" transform="translate(-122 -89.89)"/><path class="cls-18" d="M399.78,232.56c.81-2.81-.9-4.35-2.89-5.75.08-2.28.17-4.57.25-6.85l5.9,3.63c.73,1,1.28,2.75,2.21,3,3.2.82,6.53,1.13,9.81,1.64-.19.76-.38,1.52-.58,2.28-.73,0-1.47-.09-2.2-.09-5.44,0-6.93,2.28-4.56,7.13.8,1.64,1.81,3.18,2.72,4.77-.1,1-.2,2.07-.31,3.1-.9-1-1.87-1.9-2.68-2.95-1-1.27-1.83-2.63-2.74-4l-.21-.73c-.55-2.37-1.41-4.44-4.36-4.46Z" transform="translate(-122 -89.89)"/><path class="cls-18" d="M185.73,368.41c4.81,6.32,9.78,12.52,14.28,19,.86,1.24-.1,3.74-.23,5.67-4.54-6.57-9.19-13.06-13.53-19.75C185.44,372.13,185.87,370.09,185.73,368.41Z" transform="translate(-122 -89.89)"/><path class="cls-16" d="M210.07,421.91l-7.49-.1c0-3.56,0-7.12,0-10.67l8.21,0C210.54,414.72,210.31,418.32,210.07,421.91Z" transform="translate(-122 -89.89)"/><path class="cls-15" d="M282,236.62l15.27-4L296,237.89c-2.45-.34-5.71-5.21-7.49.22-.41,1.26,1.76,3.35,2.74,5.06l1.45.17q-1.77,1.42-3.52,2.87l-5.57-5.58C283.05,239.3,282.53,238,282,236.62Z" transform="translate(-122 -89.89)"/><path class="cls-13" d="M415.65,208.94l-3.92-5.83c2.63.76,5.23,1.64,7.89,2.25a46.43,46.43,0,0,0,5.44.63l2.4,7.3-6.62,1.8Z" transform="translate(-122 -89.89)"/><path class="cls-13" d="M173,256.89l-8.14.82a33.48,33.48,0,0,1-2.66-3.78c-1-1.85-1.69-3.84-2.52-5.78l2.13-.43c1.85,6.08,5.92,6.77,10.1,6.28,4-.48,9.12-3.21,9.39-8.26.07-1.46,1.81-2.84,2.78-4.26a32.94,32.94,0,0,0-1.44,4.45c-.79,4.48-3.16,7.45-7.55,8.88C174.29,255.08,173.72,256.18,173,256.89Z" transform="translate(-122 -89.89)"/><path class="cls-13" d="M369.74,279.14l3.44-1.55c1.64,3.46,4.28,5.15,8.18,4.6l.93,6.63c-2.07-.51-4.13-1.11-6.22-1.51C372.08,286.54,370.57,284.65,369.74,279.14Z" transform="translate(-122 -89.89)"/><path class="cls-2" d="M394.26,133.23l2.83-.34c1.94,5.41,3.48,6.46,9.05,6.58,2.41.05,4.81.46,7.21.71l-4.44,4.23c-1.79-.67-3.54-1.8-5.36-1.93C397.94,142.08,394.23,138.58,394.26,133.23Z" transform="translate(-122 -89.89)"/><path class="cls-4" d="M156.16,313.41l-4.59,3.4c-1.38-.7-2.71-1.87-4.15-2-5.73-.6-9.09-4-9.13-9.76l2.91-.12c.71,4.52,3.45,6.44,9.17,6.9C152.33,312,154.23,312.86,156.16,313.41Z" transform="translate(-122 -89.89)"/><path class="cls-12" d="M349.89,319.39c2.28-.25,4.7-1,6.22,1.61,2,3.37.4,6.12-4.13,7.14l-3-.78C347,324.45,346.6,321.72,349.89,319.39Z" transform="translate(-122 -89.89)"/><path class="cls-4" d="M468.19,304.48l-2.27,2.92c-.71-3.31-3.74-3-6-3.75s-4.52-1-6.56-1.94c-3.41-1.6-5.63-4.21-5.23-8.33h2.95c.39,4,3,6.2,7.63,7.36C462,301.55,465,303.2,468.19,304.48Z" transform="translate(-122 -89.89)"/><path class="cls-13" d="M460.65,180.2c5,5.51,9.22,11.35,9.62,19.14-1.47-1.85-3.07-3.61-4.36-5.58a73.67,73.67,0,0,1-5.37-9C460,183.51,460.58,181.73,460.65,180.2Z" transform="translate(-122 -89.89)"/><path class="cls-18" d="M463,207.69c-2.4-.54-5.08-.57-7.14-1.71-4.23-2.36-8.13-5.31-12.16-8,1.23-.15,2.75-.85,3.63-.37,5.15,2.76,10.15,5.79,15.17,8.78C462.78,206.56,462.8,207.24,463,207.69Z" transform="translate(-122 -89.89)"/><path class="cls-16" d="M273.61,421.16l-7.87.2c0-.54-.07-1.08-.11-1.61l1.26-5.9h8.2Q274.34,417.5,273.61,421.16Z" transform="translate(-122 -89.89)"/><path class="cls-13" d="M267.73,297.62l5.16,3.73c.24,2.79,1,5.16,4.42,5.22l-.69,4.45C270.57,309.05,267.62,304.59,267.73,297.62Z" transform="translate(-122 -89.89)"/><path class="cls-2" d="M339.53,299.84l2-.75c1.35,2.56,2,5.84,6.11,5.33.46-.05,1,.53,1.5.81l-2,2.87c-3.72,0-6.53-1.53-7.87-5.06C338.89,302.14,339.41,300.92,339.53,299.84Z" transform="translate(-122 -89.89)"/><path class="cls-20" d="M369.73,421.28l-.14.16-.19-.08c-3.4-1.69-4.37-4.81-4.83-8.23l6.45.32Z" transform="translate(-122 -89.89)"/><path class="cls-13" d="M283.57,240.63l5.57,5.58c-.31,1.63-.61,3.27-.92,4.91-1.86-2.91-3.76-5.79-5.52-8.76C282.53,242.06,283.26,241.22,283.57,240.63Z" transform="translate(-122 -89.89)"/><path class="cls-18" d="M329.85,233.27l5.81,3.35,1,4.06-2.2,1.57C331.33,240.06,329.5,237.22,329.85,233.27Z" transform="translate(-122 -89.89)"/><path class="cls-18" d="M309.19,227.13c-4.35,2.77-6.1-.75-8.22-3.38C304.16,222.67,307.08,223.87,309.19,227.13Z" transform="translate(-122 -89.89)"/><path class="cls-5" d="M377.76,244.56l5,6.22-5-.53-1.39-3C376.79,246.33,377.27,245.44,377.76,244.56Z" transform="translate(-122 -89.89)"/><path class="cls-2" d="M266.89,413.85l-1.26,5.9c-3.26-1-2.13-3.72-2.38-5.9Z" transform="translate(-122 -89.89)"/><path class="cls-14" d="M212.94,226.7l-.13,2.83-4.29-.77Z" transform="translate(-122 -89.89)"/><path class="cls-19" d="M418.46,427.89c-.59.52-1.18,1.48-1.78,1.49-6.27.11-12.55.15-18.82,0-.78,0-1.51-1.47-2.27-2.25.28-1.93.55-3.85.83-5.78l7.91-.15,3.78.23,2.31.42,1.39.32L414,423C415.47,424.64,417,426.26,418.46,427.89Z" transform="translate(-122 -89.89)"/><path class="cls-21" d="M486.57,200.08l-6.68-20c2.15,2.83,5,5.37,6.29,8.55,2.75,6.89,5.56,13.81,4.94,21.65-.59,7.5-6,15.5-13.19,17.88-3.94,1.3-7.86,2.18-12.16,1.48-10.61-1.73-11.73-.87-14.68,9.58-.25.5-.49,1-.74,1.48,0,.5,0,1,0,1.48-1,2-2,4-2.95,5.92,0,.74,0,1.47,0,2.21q-1.47,2.59-2.95,5.19V257L443,258.5l-.74,1.48-1.47-.74c2.78-7,5.6-14,8.32-21.09a7.52,7.52,0,0,0-1-7.94c.19-1.73,2-4-1.54-4.46.68-3.7,3.51-1.4,5.33-1.91,1.34,1,2.58,2.46,4.05,2.74,2.74.53,5.69,0,8.42.52,12.18,2.47,22.1-3.71,24.23-15.82C489.18,207.56,489.87,203.34,486.57,200.08Z" transform="translate(-122 -89.89)"/><path class="cls-21" d="M438.52,262.94l-.74.74-2.23,2.21-2.21.75-1.49,1.46-2.2,0-3,2.21h-1.47l-1.49,1.47H423L420.77,274c0,.25,0,.49,0,.74l-3.69,8.88-.75,3.69-1.47,5.18c0,.74,0,1.47,0,2.21-.24.5-.49,1-.73,1.49-.25,1.23-.49,2.46-.74,3.69s-.49,2.47-.73,3.71v6.64q.36,3.71.74,7.4v3c.24,2.46.49,4.93.73,7.4,0,.49,0,1,0,1.47.24,2.22.49,4.44.73,6.66s.49,4.44.74,6.66V345c0,3,0,5.92,0,8.87,0,1.48,0,3,0,4.45-.48-.59-1.35-1.14-1.4-1.76-.82-11.33-1.55-22.66-2.28-34-.1-1.47-.06-2.95-.21-4.41-1.13-10.85-1.21-21.61,2.44-32.12.91-2.63,1.28-5.47,2.34-8s2-5.51,4-6.79c5.74-3.67,12-6.57,18-9.78Z" transform="translate(-122 -89.89)"/><path class="cls-21" d="M410.42,421.82l-2.31-.42c.67-1.29,1.39-2.55,2-3.88,1.34-3.06,3.29-6.06,3.76-9.27.67-4.51.15-9.19.33-13.78,0-1,.91-1.91,1.4-2.86l0,7.41v12.56l-2.22,5.18v.74L411.89,419v.73Z" transform="translate(-122 -89.89)"/><path class="cls-21" d="M416.33,385.7v3.7h-.75c-.45-.66-1.31-1.33-1.3-2,.12-8.42.34-16.84.6-25.26a9.35,9.35,0,0,1,.7-2.34h.75V385.7Z" transform="translate(-122 -89.89)"/><path class="cls-22" d="M416.33,385.7V361.29c.49.7,1.4,1.4,1.41,2.11q.17,10.1,0,20.19C417.73,384.3,416.82,385,416.33,385.7Z" transform="translate(-122 -89.89)"/><path class="cls-22" d="M415.58,389.4h.75c.77,3.28,2.07,6.61-.73,9.62q0-3.7,0-7.41Z" transform="translate(-122 -89.89)"/><path class="cls-22" d="M417.07,283.65l3.69-8.88Z" transform="translate(-122 -89.89)"/><path class="cls-22" d="M414.11,328c-.24-2.47-.49-4.94-.73-7.4C416.2,322.83,414.88,325.45,414.11,328Z" transform="translate(-122 -89.89)"/><path class="cls-22" d="M413.38,317.66q-.37-3.69-.74-7.4C415.46,312.47,414.14,315.09,413.38,317.66Z" transform="translate(-122 -89.89)"/><path class="cls-22" d="M414.85,336.15c-.24-2.22-.49-4.44-.73-6.66C416.84,331.44,415.59,333.82,414.85,336.15Z" transform="translate(-122 -89.89)"/><path class="cls-22" d="M438.52,262.94v-1.48l2.22-2.22,1.47.74Z" transform="translate(-122 -89.89)"/><path class="cls-22" d="M447.39,248.15c1-2,2-4,2.95-5.92C449.36,244.2,448.38,246.18,447.39,248.15Z" transform="translate(-122 -89.89)"/><path class="cls-22" d="M416.33,359.81h-.75v-1.48c0-1.48,0-3,0-4.45C418.31,355.56,417.14,357.71,416.33,359.81Z" transform="translate(-122 -89.89)"/><path class="cls-22" d="M444.43,255.55q1.49-2.6,2.95-5.19Q445.91,253,444.43,255.55Z" transform="translate(-122 -89.89)"/><path class="cls-22" d="M413.37,416.76l2.22-5.18C416.65,414.08,416.05,415.86,413.37,416.76Z" transform="translate(-122 -89.89)"/><path class="cls-22" d="M414.85,292.52l1.47-5.18Z" transform="translate(-122 -89.89)"/><path class="cls-22" d="M412.64,303.62c.24-1.24.49-2.47.73-3.71C414.39,301.4,414.92,302.79,412.64,303.62Z" transform="translate(-122 -89.89)"/><path class="cls-22" d="M426.68,270.33l3-2.21Z" transform="translate(-122 -89.89)"/><path class="cls-22" d="M435.55,265.89l2.23-2.21Z" transform="translate(-122 -89.89)"/><path class="cls-22" d="M420.77,274l2.22-2.22Z" transform="translate(-122 -89.89)"/><path class="cls-22" d="M415.59,345v0Z" transform="translate(-122 -89.89)"/><path class="cls-22" d="M410.42,421.82l1.47-2.11c0,.81-.05,1.62-.08,2.43Z" transform="translate(-122 -89.89)"/><path class="cls-22" d="M450.35,240.75c.25-.49.49-1,.74-1.48C450.84,239.77,450.6,240.26,450.35,240.75Z" transform="translate(-122 -89.89)"/><path class="cls-22" d="M443,258.5l1.48-1.48Z" transform="translate(-122 -89.89)"/><path class="cls-22" d="M414.11,296.22c.24-.5.49-1,.73-1.49C414.6,295.23,414.35,295.72,414.11,296.22Z" transform="translate(-122 -89.89)"/><path class="cls-22" d="M423.72,271.81l1.49-1.47Z" transform="translate(-122 -89.89)"/><path class="cls-22" d="M411.89,419l1.48-1.48Z" transform="translate(-122 -89.89)"/><path class="cls-22" d="M431.85,268.1l1.49-1.46Z" transform="translate(-122 -89.89)"/><path class="cls-3" d="M461.44,331l-4.07,1.64c-4.88,2-9.55-.82-10-6l2.22,1.44c1.57,3.14,4.12,4.2,7.08,3.05,6-2.33,12.05-4.66,18.11-6.9,8.61-3.19,13.21-9.42,12.45-17.71-.33-3.57-1.05-7.34-5.31-8.74-1.19-2-2.39-4-3.59-6l1.59,0h0l3,2.22.74.74,1.47,1.48.75,1.47c.74,1,1.47,2,2.21,3,0,.5,0,1,0,1.48.25,3,.49,5.92.74,8.88,0,1.23,0,2.46,0,3.69-.74,1-1.47,2-2.21,3,0,.25,0,.5,0,.74l-1.47,1.48-2.22,2.22c-.5.49-1,1-1.48,1.48h-.74l-8.88,3.7h-2.21l-7.4,3.69Z" transform="translate(-122 -89.89)"/><path class="cls-13" d="M471.79,327.28l8.88-3.7C478.5,326.72,475.35,327.48,471.79,327.28Z" transform="translate(-122 -89.89)"/><path class="cls-13" d="M488.81,311c-.25-3-.49-5.92-.74-8.88C490.72,304.58,491.07,308.84,488.81,311Z" transform="translate(-122 -89.89)"/><path class="cls-13" d="M462.18,331l7.4-3.69Z" transform="translate(-122 -89.89)"/><path class="cls-13" d="M479.93,291.78l-1.59,0-2.26-2.2Z" transform="translate(-122 -89.89)"/><path class="cls-13" d="M488.06,300.65c-.74-1-1.47-2-2.21-3C486.59,298.68,487.32,299.67,488.06,300.65Z" transform="translate(-122 -89.89)"/><path class="cls-13" d="M486.59,317.66c.74-1,1.47-2,2.21-3C488.06,315.69,487.33,316.68,486.59,317.66Z" transform="translate(-122 -89.89)"/><path class="cls-13" d="M482.89,294l-3-2.22Z" transform="translate(-122 -89.89)"/><path class="cls-13" d="M485.11,319.88l1.47-1.48Z" transform="translate(-122 -89.89)"/><path class="cls-13" d="M485.1,296.22l-1.47-1.48Z" transform="translate(-122 -89.89)"/><path class="cls-13" d="M481.41,323.58c.49-.49,1-1,1.48-1.48C482.39,322.59,481.9,323.09,481.41,323.58Z" transform="translate(-122 -89.89)"/><path class="cls-23" d="M415.58,358.34v1.48a9.35,9.35,0,0,0-.7,2.34c-.26,8.42-.48,16.84-.6,25.26,0,.65.85,1.32,1.3,2v2.21c-.49.95-1.36,1.89-1.4,2.86-.18,4.59.34,9.27-.33,13.78-.47,3.21-2.42,6.21-3.76,9.27-.59,1.33-1.31,2.59-2,3.88l-3.78-.23c.14-2.61.27-5.21.4-7.82l5.54-.33a28.58,28.58,0,0,0,.64-3.81c.58-14.62,1.59-29.24,1.48-43.85-.08-11.76-1.58-23.52-2.39-35.28-.66-9.56-1.23-19.13-1.84-28.69.5-.69,1.27-1.32,1.47-2.09,2-7.93,3.61-16,6-23.76.82-2.64,3.32-5.14,5.68-6.81,3.57-2.53,7.7-4.25,11.58-6.35,8.12-4.38,9.5-12.48,11.21-20.39,0-.13-.32-.34-.49-.51L448,230.21a7.52,7.52,0,0,1,1,7.94c-2.72,7-5.54,14.06-8.32,21.09l-2.22,2.22c-6,3.21-12.26,6.11-18,9.78-2,1.28-3,4.35-4,6.79s-1.43,5.4-2.34,8c-3.65,10.51-3.57,21.27-2.44,32.12.15,1.46.11,2.94.21,4.41.73,11.33,1.46,22.66,2.28,34C414.23,357.2,415.1,357.75,415.58,358.34Z" transform="translate(-122 -89.89)"/><path class="cls-24" d="M443.65,241.48c.17.17.52.38.49.51-1.71,7.91-3.09,16-11.21,20.39-3.88,2.1-8,3.82-11.58,6.35-2.36,1.67-4.86,4.17-5.68,6.81-2.43,7.79-4,15.83-6,23.76-.2.77-1,1.4-1.47,2.09-.12-.51-.23-1-.35-1.55.64-4.37,1.06-8.79,2-13.1.58-2.76,2.12-5.32,2.83-8.07.86-3.32,1.3-6.75,2-10.47,4.74-2.25,10.28-4.81,15.75-7.51,5-2.48,8.8-6.05,10.26-11.78C441.27,246.34,442.62,244,443.65,241.48Z" transform="translate(-122 -89.89)"/><path class="cls-25" d="M382.91,421.64l-5.23-.45c.61-2.38,1.23-4.76,1.84-7.14,2.16.24,2.89-1.06,3.44-2.89,2.75-9,5.58-18,8.41-27,.38-1.22.91-2.4,1.17-3.09v18.64a17.23,17.23,0,0,0-2.17,3c-2.25,5.24-4.38,10.52-6.52,15.79C383.45,419.55,383.22,420.61,382.91,421.64Z" transform="translate(-122 -89.89)"/><path class="cls-18" d="M396.42,421.32c-.28,1.93-.55,3.85-.83,5.78l-4.31,0-6.07-5.07c1.57-3.82,3.05-7.67,4.76-11.42.31-.68,1.55-.94,2.35-1.39.1,1.18.2,2.36.31,3.69l3.64.29Z" transform="translate(-122 -89.89)"/><path class="cls-16" d="M396.42,421.32l-.15-8.08,8.46.11c-.13,2.61-.26,5.21-.4,7.82Z" transform="translate(-122 -89.89)"/><path class="cls-16" d="M379.52,414.05c-.61,2.38-1.23,4.76-1.84,7.14l-7.95.09,1.29-7.83Z" transform="translate(-122 -89.89)"/><path class="cls-26" d="M392.32,409.26c-.8.45-2,.71-2.35,1.39-1.71,3.75-3.19,7.6-4.76,11.42l-2.3-.43c.31-1,.54-2.09.94-3.08,2.14-5.27,4.27-10.55,6.52-15.79a17.23,17.23,0,0,1,2.17-3C392.47,402.93,392.4,406.09,392.32,409.26Z" transform="translate(-122 -89.89)"/><path class="cls-25" d="M303.3,413.85l4.25-.33c.53-10.29,1.05-20.44,1.58-30.59l3.15-60.32c0-.61,0-1.23,0-1.84,3.44.11,5.44-2,7.17-4.6,3.28,1.48,2.63,3.83,1,5.94-2.75,3.55-5,7.27-5.35,11.85-.27,3.17-.59,6.33-.74,9.51-.78,16-1.57,32.06-2.22,48.09-.41,10.12.33,20.38-4.49,29.82l-4.56-.21Z" transform="translate(-122 -89.89)"/><path class="cls-24" d="M273.61,421.16q.74-3.66,1.48-7.32l5.65-.36,10-48.39v22.06c-.74,1-1.88,1.86-2.15,3-1.19,4.82-2.15,9.7-3.15,14.56s-1.88,9.54-6.12,12.82c-1.16.91-1.84,2.42-2.74,3.66Z" transform="translate(-122 -89.89)"/><path class="cls-16" d="M319.4,316.17c-1.73,2.56-3.73,4.71-7.17,4.6-5,0-5.83-4.2-7.75-7.36,1.48-6.84,2.71-7.86,9-7.44l2.25,1.39,2.09,1.51c.57,1.2,1.15,2.4,1.72,3.61Z" transform="translate(-122 -89.89)"/><path class="cls-2" d="M287.05,426.31l-2.48-2.55q2.69-5.07,5.38-10.12l2.88.21,2.1,3.65c.05,1.27.11,2.54.16,3.81-.25,1.66-.51,3.33-.77,5Z" transform="translate(-122 -89.89)"/><path class="cls-21" d="M276.57,421.15c.9-1.24,1.58-2.75,2.74-3.66,4.24-3.28,5.15-8,6.12-12.82s2-9.74,3.15-14.56c.27-1.1,1.41-2,2.15-3l-.21,8.91c-.95,2.19-2.31,4.3-2.78,6.59-1.13,5.47-1.72,11-6,15.31-.89.9-1,2.55-1.51,3.86Z" transform="translate(-122 -89.89)"/><path class="cls-22" d="M280.26,421.82c.48-1.31.62-3,1.51-3.86,4.25-4.29,4.84-9.84,6-15.31.47-2.29,1.83-4.4,2.78-6.59l-.77,14.05c-.7,1-1.49,2-2.09,3-1.77,3.12-3.46,6.28-5.18,9.43Z" transform="translate(-122 -89.89)"/><path class="cls-16" d="M295.09,421.31c0-1.27-.11-2.54-.16-3.81l.18-3.67,8.19,0-.27,7.32Z" transform="translate(-122 -89.89)"/><path class="cls-19" d="M300,323.44q-3.69,17.65-7.4,35.3l-1-.21q3.67-17.64,7.37-35.28Z" transform="translate(-122 -89.89)"/><path class="cls-18" d="M282.48,422.57c1.72-3.15,3.41-6.31,5.18-9.43.6-1.06,1.39-2,2.09-3l.2,3.53q-2.7,5.06-5.38,10.12Z" transform="translate(-122 -89.89)"/><path class="cls-20" d="M277.31,306.57c-3.45-.06-4.18-2.43-4.42-5.22,2.6.57,4.74,1.59,4.65,4.78A.39.39,0,0,1,277.31,306.57Z" transform="translate(-122 -89.89)"/><path class="cls-18" d="M295.11,413.83l-.18,3.67-2.1-3.65Z" transform="translate(-122 -89.89)"/><path class="cls-5" d="M198.3,283.61c0-.71.18-1.58-.15-2.12-4.66-7.63-1.42-13.62,3.86-19.22l3-1.49,2-.18c-.59,2.07-3,4.31-.06,6.18s5.13,0,6.92-2.18a49.49,49.49,0,0,0,2.78-4.31l3.66-.17c4.43,1.05,8.19,3.06,10.44,7.25.51,2.22,1,4.43,1.54,6.65l-1.7,2.09c-2.19.79-4.39,1.54-6.55,2.39s-2.86,1.87-2.39,4.48c1.11,6.11,1.58,12.33,2.31,18.51l-24.2-1c-.09-.65-.19-1.3-.28-1.95l-.66-9.82Z" transform="translate(-122 -89.89)"/><path class="cls-16" d="M224,301.49c-.73-6.18-1.2-12.4-2.31-18.51-.47-2.61.35-3.69,2.39-4.48s4.36-1.6,6.55-2.39c.52,5.11,1.54,10.22,1.47,15.32-.19,13-.76,26-1.47,38.95-.1,1.76-1.93,3.43-3,5.14-5.89,2.2-9.64-2.41-8.76-6.63.23-1.14.8-2.87,1.6-3.12,4.6-1.5,3.57-5.16,3.57-8.42C224.05,312.06,224,306.78,224,301.49Z" transform="translate(-122 -89.89)"/><path class="cls-22" d="M232.28,274c-.51-2.22-1-4.43-1.54-6.65,5.79,2,7.09,7.07,7.23,12,.38,13.16.52,26.36,0,39.51-.36,9-1.57,17.85-4.79,26.55-2.44,6.62-2.76,14-3.92,21.12-.63,3.86-.74,7.81-1.59,11.61-1.16,5.26,1.23,9.31,4,13.19,3,4.16,5.43,8.11,4.43,13.77-.45,2.55.84,5.88,2.34,8.2,2.69,4.17,4.18,8.26,2.63,13.13l-4.39.17c.73-3,3.12-5.86,1.37-9.28l-4.92-6.66c-.34-.91-.67-1.81-1-2.71.29-3.57,2.46-7.3-.9-10.56-.15-1.16.05-2.54-.52-3.44-2.09-3.32-4.43-6.49-6.68-9.71.5-4.37,1.19-8.72,1.46-13.1.73-11.31,3.54-22.09,6.53-33,2.44-8.94,2.71-18.59,3-28,.34-10.78-.29-21.6-.69-32.4C234.27,276.53,233,275.29,232.28,274Z" transform="translate(-122 -89.89)"/><path class="cls-27" d="M232.28,274c.71,1.27,2,2.51,2,3.81.4,10.8,1,21.62.69,32.4-.29,9.37-.56,19-3,28-3,10.91-5.8,21.69-6.53,33-.27,4.38-1,8.73-1.46,13.1L221.89,382l-1.43-1.71c1.84-15,2.66-30.17,7.17-44.75,1-1.71,2.85-3.38,3-5.14.71-13,1.28-26,1.47-38.95.07-5.1-1-10.21-1.47-15.32Z" transform="translate(-122 -89.89)"/><path class="cls-22" d="M199.47,298.55c.09.65.19,1.3.28,1.95l-.93,2.38c-5.78-3.22-11.61-6.35-17.31-9.69a115.73,115.73,0,0,1-11.07-7.25c-1.44-1.07-2.22-3-3.3-4.58,1.44.6,3,1.07,4.32,1.81C180.81,288.26,190.13,293.42,199.47,298.55Z" transform="translate(-122 -89.89)"/><path class="cls-16" d="M232.12,408c.34.9.67,1.8,1,2.71l-6,4.12-1.26-.45c-.42-.68-.83-1.36-1.24-2l-3.55-5.21,6.09-5.94Z" transform="translate(-122 -89.89)"/><path class="cls-25" d="M221.12,407.13l3.55,5.21c-4.8,1-8.87,3.14-11.55,7.51-.56.93-1.78,1.46-2.69,2.17l-.21.05-.15-.16c.24-3.59.47-7.19.71-10.79l5.86-1.07,2.27-1.42Z" transform="translate(-122 -89.89)"/><path class="cls-27" d="M232.12,408l-4.91-6.81,4-3.75C234.58,400.7,232.41,404.43,232.12,408Z" transform="translate(-122 -89.89)"/><path class="cls-11" d="M218.91,408.63l-2.27,1.42-.87-2.83Z" transform="translate(-122 -89.89)"/><path class="cls-11" d="M216.72,402.76c.19-.41.37-.82.59-1.21a4.33,4.33,0,0,1,.56.25l-.62,1.22Z" transform="translate(-122 -89.89)"/><path class="cls-11" d="M219,393.93l-.13-1.53.43,0,.23,1.52Z" transform="translate(-122 -89.89)"/><path class="cls-11" d="M217.92,404.75v1.09h-.31v-1.09Z" transform="translate(-122 -89.89)"/><path class="cls-11" d="M220.46,380.27l1.43,1.71Z" transform="translate(-122 -89.89)"/><path class="cls-11" d="M220.1,386.07l.13,1.08c-.19-.12-.46-.21-.52-.37S219.89,386.43,220.1,386.07Z" transform="translate(-122 -89.89)"/><path class="cls-11" d="M218.39,400.12l-.12-1.08c.18.12.45.21.51.37S218.6,399.76,218.39,400.12Z" transform="translate(-122 -89.89)"/><path class="cls-28" d="M317.82,308.87l-2.09-1.51c-.48-8.16-1.06-16.32-1.42-24.48-.15-3.57,2.1-5.57,5.68-5.6a19.75,19.75,0,0,0,2.42-.3l11.82,3.72c2,.69,4.19,2.22,5.95,1.83a6.73,6.73,0,0,0,4.27-4.26c1.17-6.08,1.74-12.28,2.33-18.45.63-6.55.78-13.1,4-19.18a17.81,17.81,0,0,0,1.76-8.13c0-1.7-1.62-3.4-2.51-5.09-.06-1.23-.11-2.46-.17-3.69,3.27.65,4.08,3.17,4.32,5.94a27.25,27.25,0,0,1-2.95,15.71,13.43,13.43,0,0,0-1.41,4.91c-.84,8.15-1.45,16.32-2.32,24.47-1,9.3-5.93,12.19-14.83,9-3.44-1.24-6.9-2.4-10.4-3.44-2.92-.86-6.47,1.56-6.35,4.43.14,3.41.73,6.8,1,10.2C317.28,299.57,317.52,304.22,317.82,308.87Z" transform="translate(-122 -89.89)"/><path class="cls-27" d="M350,227.42c.89,1.69,2.5,3.39,2.51,5.09a17.81,17.81,0,0,1-1.76,8.13c-3.22,6.08-3.37,12.63-4,19.18-.59,6.17-1.16,12.37-2.33,18.45a6.73,6.73,0,0,1-4.27,4.26c-1.76.39-3.95-1.14-5.95-1.83,7.14-.1,7.26-2.67,8.09-9.26,1.12-9,2-18,2.83-27a11,11,0,0,0-.66-3.15c2.31-2.89,5.45-5.42,4.37-9.82Z" transform="translate(-122 -89.89)"/><path class="cls-27" d="M322.41,277a19.75,19.75,0,0,1-2.42.3c-3.58,0-5.83,2-5.68,5.6.36,8.16.94,16.32,1.42,24.48L313.48,306c-.93-8.72-1.88-17.44-2.78-26.16-.13-1.34-.46-2.9.08-4s2.2-2.1,3.07-1.89A76.48,76.48,0,0,1,322.41,277Z" transform="translate(-122 -89.89)"/><path class="cls-26" d="M308.94,229.34c1.34,4.36,3.23,8.64,3.83,13.1.43,3.13-.74,6.53-1.5,9.73-.36,1.47-1.46,2.76-2.22,4.13l-3.63-.78a16.46,16.46,0,0,1,1.65-3.21c3.33-4.11,3.61-8.44,1.27-13.07-.92-1.62-1.94-3.18-2.7-4.87a23.63,23.63,0,0,1-1-3.84Z" transform="translate(-122 -89.89)"/><path class="cls-25" d="M308.34,239.24c2.34,4.63,2.06,9-1.27,13.07a16.46,16.46,0,0,0-1.65,3.21L299.64,254c-.19-1.32-.38-2.63-.56-3.94,6.94-1.49,7.35-1.95,8.48-9.29A6.05,6.05,0,0,1,308.34,239.24Z" transform="translate(-122 -89.89)"/><path class="cls-16" d="M348.86,231.51c1.08,4.4-2.06,6.93-4.37,9.82l-7.87-.65-1-4.06C340.78,236.77,345.48,235.84,348.86,231.51Z" transform="translate(-122 -89.89)"/><path class="cls-23" d="M193,435.92c22.77.29,45.55.66,68.32.86,27.95.26,55.91.49,83.86.51,14.89,0,29.78-.36,44.67-.71,11.79-.27,23.58-.77,35.37-1.17.06,3.32-2.68,3.19-4.68,3.45a107.85,107.85,0,0,1-11.36.8c-13.39.31-26.79.52-40.19.77H240.32c-.29-.21-.58-.59-.88-.6-8-.32-15.94-.66-23.91-.85-5.72-.13-11.46.2-17.15-.19C196.53,438.67,194.79,436.92,193,435.92Z" transform="translate(-122 -89.89)"/><path class="cls-18" d="M389,443.39c-2.6.49-5.19,1.35-7.8,1.4-8.91.18-17.84,0-26.76.1-5.27.07-10.53.7-15.79.66-16-.12-31.94-.51-47.92-.65-4.52,0-9.05.69-13.57.65-8.83-.08-17.66-.44-26.5-.7-7.66-.23-15.32-.54-23-.72-12.64-.29-25.3-.29-37.94-.82-9-.38-18-1.34-27-2.2-4.86-.47-6.32-3-4.44-7.22l5.93.61c-.69,3.58,1.37,4.9,4.44,5.14,7.14.57,14.29,1,21.44,1.52h17.74l5.18.72a14.14,14.14,0,0,0,3.06.72c9.09.05,18.18,0,27.27,0h18.48a6.43,6.43,0,0,0,2,.7q12.09.07,24.17,0a6.66,6.66,0,0,0,2-.7l6.65.72h34c8.59,0,17.18,0,25.77,0a22.47,22.47,0,0,0,3.82-.71h20Z" transform="translate(-122 -89.89)"/><path class="cls-28" d="M380.09,442.64H372.7l-3.71-2.2c13.4-.25,26.8-.46,40.19-.77a107.85,107.85,0,0,0,11.36-.8c2-.26,4.74-.13,4.68-3.45l19.22-.85L446,438c-5.85.85-11.22,2.11-16.63,2.33-13.23.53-26.48.59-39.73.83-2.21,0-4.44-.14-6.63.07C382,441.33,381,442.15,380.09,442.64Z" transform="translate(-122 -89.89)"/><path class="cls-20" d="M380.09,442.64c1-.49,1.88-1.31,2.87-1.41,2.19-.21,4.42,0,6.63-.07,13.25-.24,26.5-.3,39.73-.83,5.41-.22,10.78-1.48,16.63-2.33l-1.51-3.44,8.13-.67c2.2,2.38,3.07,4.48-1.15,5.55-.18.05-.23.64-.33,1l-3.7.75h-2.21l-10.36.74h-1.48l-13.31.74H408.21l-14.81.73H389Z" transform="translate(-122 -89.89)"/><path class="cls-19" d="M227.17,414.83l6-4.12,4.92,6.66L225,427l-5.12,3.25-1-3.11C219.13,421.32,223.13,418.06,227.17,414.83Z" transform="translate(-122 -89.89)"/><path class="cls-19" d="M295.09,421.31l7.94-.14,4.56.21,2.25.48,2.22.78,4.34,3.74c.24.91.49,1.82.79,2.93H294.73l-.41-3C294.58,424.64,294.84,423,295.09,421.31Z" transform="translate(-122 -89.89)"/><path class="cls-28" d="M213,441.89l-5.18-.72H190c-.58-.49-1.11-1.31-1.74-1.4-2.76-.4-5.57-.42-8.31-.88-2.14-.35-5-.19-4.73-3.71l17.74.75c1.79,1,3.53,2.75,5.38,2.87,5.69.39,11.43.06,17.15.19,8,.19,15.94.53,23.91.85.3,0,.59.39.88.6a21,21,0,0,1-3.8.7c-6.58.07-13.17,0-19.76.06A23,23,0,0,0,213,441.89Z" transform="translate(-122 -89.89)"/><path class="cls-20" d="M175.26,435.17c-.23,3.52,2.59,3.36,4.73,3.71,2.74.46,5.55.48,8.31.88.63.09,1.16.91,1.74,1.4-7.15-.5-14.3-1-21.44-1.52-3.07-.24-5.13-1.56-4.44-5.14Z" transform="translate(-122 -89.89)"/><path class="cls-20" d="M227.17,414.83c-4,3.23-8,6.49-8.32,12.27l-3.66-.08c-1-7.31,3.06-13.06,10.72-12.64Z" transform="translate(-122 -89.89)"/><path class="cls-23" d="M225,427l13.06-9.59c1.75,3.42-.64,6.23-1.37,9.28Z" transform="translate(-122 -89.89)"/><path class="cls-18" d="M447.39,441.17l3.7-.75c2.93-.67,6.34-.4,8-3.66l-2.05-3.1,5.11-.82a2.08,2.08,0,0,0,.06.36c.47,1.72,1.82,4.45,1.25,4.94A13.28,13.28,0,0,1,457,441C453.87,441.51,450.6,441.16,447.39,441.17Z" transform="translate(-122 -89.89)"/><path class="cls-28" d="M225.91,414.38c-7.66-.42-11.72,5.33-10.72,12.64l-3,.05-1.58-2.91-.21-2.14c.91-.71,2.13-1.24,2.69-2.17,2.68-4.37,6.75-6.47,11.55-7.51C225.08,413,225.49,413.7,225.91,414.38Z" transform="translate(-122 -89.89)"/><path class="cls-3" d="M457,433.66l2.05,3.1c-1.61,3.26-5,3-8,3.66.1-.34.15-.93.33-1,4.22-1.07,3.35-3.17,1.15-5.55Z" transform="translate(-122 -89.89)"/><path class="cls-25" d="M210.64,424.16l1.58,2.91-1.62.13C210.61,426.19,210.62,425.18,210.64,424.16Z" transform="translate(-122 -89.89)"/><path class="cls-29" d="M404.5,237.78l.21.73c-.14,2.45-.29,4.9-.43,7.35-1.38,1.49-2.53,3.4-4.21,4.38-2,1.15-1.47,2.26-.83,3.69L390,258.67l-.45-2.38c-.22-1.24-.44-2.49-.67-3.73l-.71-4.76c-1.17-.35-2.62-.37-3.34-1.1s-1.54-2.53-1.19-3.41a4.41,4.41,0,0,1,3.11-2.39c4.1-.27,6.66-2.22,7.4-6.5a51.26,51.26,0,0,0,.33-5.24l5.28,3.4.36.76C400.68,235.71,401.85,237.47,404.5,237.78Z" transform="translate(-122 -89.89)"/><path class="cls-21" d="M441.59,214.54q2.31,1.58,4.61,3.16L443,219.38c-3.13-1.18-9.88,2.77-10.77,6.89-1.16,5.41-1.67,10.95-2.45,16.44-.83,2.37-.5,5.44-3.8,6.32.79-4.56,1.35-9.19,2.45-13.68.7-2.87.62-5.29-1.25-7.59l1.06-5.78-3-.74a10.79,10.79,0,0,1,2.21-2.08c2.33-1.16,4.77-2.12,7.16-3.16C437.46,218.09,439.67,217,441.59,214.54Z" transform="translate(-122 -89.89)"/><path class="cls-21" d="M388.9,252.56c.23,1.24.45,2.49.67,3.73-1.94,0-4.06-.46-5.77.16-1.45.53-2.69,2.18-3.47,3.64-.3.57.93,2,1.46,3q-1.25,2.16-2.48,4.32c-1.49-2.86-3.07-5.69-4.45-8.6-1.75-3.68,0-6.31,2.84-8.52l5,.53Z" transform="translate(-122 -89.89)"/><path class="cls-20" d="M429.77,242.71c.78-5.49,1.29-11,2.45-16.44.89-4.12,7.64-8.07,10.77-6.89-.52,1.63-1.05,3.26-1.57,4.89l-2.61-.53Z" transform="translate(-122 -89.89)"/><path class="cls-16" d="M434.58,216c-2.39,1-4.83,2-7.16,3.16a10.79,10.79,0,0,0-2.21,2.08l-5.11-.59c0-.2,0-.41-.06-.61.27-1.65.53-3.3.8-4.95l6.62-1.8,6.41-1.34C434.11,213.3,434.35,214.65,434.58,216Z" transform="translate(-122 -89.89)"/><path class="cls-30" d="M427.17,227.76c1.87,2.3,1.95,4.72,1.25,7.59-1.1,4.49-1.66,9.12-2.45,13.68l-4.85,1.89C423.27,242.7,425.22,235.23,427.17,227.76Z" transform="translate(-122 -89.89)"/><path class="cls-30" d="M420,220c0,.2,0,.41.06.61-3.86-.65-2.92,2.91-4.06,4.65a33.24,33.24,0,0,1-4.3.62c-2,0-4.32.55-5.06-2.29,5-1.41,9.19-3.6,9.77-9.51.69,1.29,1.35,2.59,2.1,3.86A25.06,25.06,0,0,0,420,220Z" transform="translate(-122 -89.89)"/><path class="cls-13" d="M410.44,242.31c-.91-1.59-1.92-3.13-2.72-4.77-2.37-4.85-.88-7.15,4.56-7.13.73,0,1.47.06,2.2.09Q412.47,236.41,410.44,242.31Z" transform="translate(-122 -89.89)"/><path class="cls-16" d="M441.42,224.27c.52-1.63,1.05-3.26,1.57-4.89l3.21-1.68,8.47,5.3-2.85.84c-1.82.51-4.65-1.79-5.33,1.91Z" transform="translate(-122 -89.89)"/><path class="cls-20" d="M381.79,263.05c-.53-1-1.76-2.39-1.46-3,.78-1.46,2-3.11,3.47-3.64,1.71-.62,3.83-.15,5.77-.16l.45,2.38Z" transform="translate(-122 -89.89)"/><path class="cls-26" d="M381.36,282.19c-3.9.55-6.54-1.14-8.18-4.6l3.85-3.06,3.49,2.5Z" transform="translate(-122 -89.89)"/><path class="cls-21" d="M404.28,245.86c.14-2.45.29-4.9.43-7.35.91,1.32,1.75,2.68,2.74,4,.81,1,1.78,2,2.68,2.95-.23,2.63-1.26,4.62-4.12,5.12Z" transform="translate(-122 -89.89)"/><path class="cls-26" d="M406.68,223.63c.74,2.84,3.07,2.32,5.06,2.29a33.24,33.24,0,0,0,4.3-.62c-.33,1-.66,1.95-1,2.92-3.28-.51-6.61-.82-9.81-1.64-.93-.24-1.48-2-2.21-3Z" transform="translate(-122 -89.89)"/><path class="cls-24" d="M404.28,245.86l1.73,4.67-6.77,3.4c-.64-1.43-1.18-2.54.83-3.69C401.75,249.26,402.9,247.35,404.28,245.86Z" transform="translate(-122 -89.89)"/><path class="cls-24" d="M380.52,277l-3.49-2.5,1.66-4.22Z" transform="translate(-122 -89.89)"/><path class="cls-3" d="M263.16,117.29a19.62,19.62,0,0,1,3.76,1.85c10.79,8.49,11.82,25.63,4.07,36-1.84,2.46-3.5,5-5.39,7.45-3.47,4.44-6.12,9.08-6.14,15a6.92,6.92,0,0,1-5.36,7.1c-3.16.83-6.4,1.9-9.61,1.93-3.43,0-6-2-6.4-5.84l1.49-.54c1.27,1.4,2.29,3.53,3.86,4.09,6.67,2.36,13.88-2.86,14.72-9.89a24.53,24.53,0,0,1,2.83-8.53,82.12,82.12,0,0,1,6.84-9.92c5.56-7.33,8.48-15.18,5-24.31-1.45-3.79-2.28-8.07-6.63-10Z" transform="translate(-122 -89.89)"/><path class="cls-23" d="M269,138.64c-.18-3.44-.35-6.87-.53-10.3.94,1.59,2.26,3.06,2.76,4.78,2.7,9.39-1,17.14-6.5,24.44-4.18,5.53-8.87,10.75-9.06,18.41-.08,3.58-2.81,5.7-6.32,6.11-2.77.33-6,1.46-7.7-2.27l11.61-3.46c-.15-1.3-.29-2.46-.43-3.62,3.94-6.27,8-12.51,11.8-18.85a47,47,0,0,0,4.62-9.11C269.88,143,272,140.52,269,138.64Z" transform="translate(-122 -89.89)"/><path class="cls-26" d="M241.68,179.81c1.67,3.73,4.93,2.6,7.7,2.27,3.51-.41,6.24-2.53,6.32-6.11.19-7.66,4.88-12.88,9.06-18.41,5.49-7.3,9.2-15.05,6.5-24.44-.5-1.72-1.82-3.19-2.76-4.78q-1.17-3.32-2.33-6.63c4.34,1.9,5.17,6.18,6.62,10,3.52,9.13.6,17-5,24.31a82.12,82.12,0,0,0-6.84,9.92,24.53,24.53,0,0,0-2.83,8.53c-.84,7-8.05,12.25-14.72,9.89-1.57-.56-2.59-2.69-3.86-4.09Z" transform="translate(-122 -89.89)"/><path class="cls-25" d="M216.5,138.59c6.94-6.18,14.53-11,24.22-11,1.87,0,3.74,1.34,5.62,2.06-2.09.46-4.31.61-6.24,1.44q-7.72,3.33-15.24,7.15C222,139.69,219.42,141.4,216.5,138.59Z" transform="translate(-122 -89.89)"/><path class="cls-26" d="M216.5,138.59c2.92,2.81,5.53,1.1,8.36-.34q7.5-3.81,15.24-7.15c1.93-.83,4.15-1,6.24-1.44l2.69,4.63c-6-1.46-11.44.53-16.65,3.14-3.38,1.69-6.48,3.94-9.84,5.67s-6.41.53-8.1-2.84Z" transform="translate(-122 -89.89)"/><path class="cls-25" d="M269,138.64c2.93,1.88.85,4.33.25,6.13a47,47,0,0,1-4.62,9.11c-3.84,6.34-7.86,12.58-11.8,18.85a9.85,9.85,0,0,1,1.12-10c2.29-3.31,5.06-6.31,7.16-9.72C264,148.34,266.42,143.43,269,138.64Z" transform="translate(-122 -89.89)"/><path class="cls-21" d="M355.73,168.27l-1-10.29c2.85,1.62,5.74,9.61,5.17,13.6-.93,6.51-3.95,12.07-8,17-3.81,4.59-7.09,9.19-7.43,15.46-.18,3.34-3.83,5.92-8.05,6.38-3.06.33-5.3-.63-6-4,2.67-.69,5.32-1.5,8-2,2.14-.43,2.8-1.55,2.33-3.55a6.4,6.4,0,0,0,1.32-1.21c2.63-4.23,5.36-8.41,7.77-12.76a147.29,147.29,0,0,0,6.93-14C357.34,171.73,356.14,169.84,355.73,168.27Z" transform="translate(-122 -89.89)"/><path class="cls-20" d="M330.46,206.45c.67,3.33,2.91,4.29,6,4,4.22-.46,7.87-3,8.05-6.38.34-6.27,3.62-10.87,7.43-15.46,4.08-4.92,7.1-10.48,8-17,.57-4-2.32-12-5.17-13.6l-2.26-5.14c1.7,1.28,4,2.2,5,3.89,4.61,7.93,6.29,16.22,1.22,24.66-2.12,3.54-4.5,6.92-6.83,10.32-2.5,3.62-5,7-5.29,11.84-.28,5.3-4.34,7.49-9.13,8.68a7.09,7.09,0,0,1-7.63-2.2,13.3,13.3,0,0,1-1.53-3.17Z" transform="translate(-122 -89.89)"/><path class="cls-30" d="M355.73,168.27c.41,1.57,1.61,3.46,1.11,4.65a147.29,147.29,0,0,1-6.93,14c-2.41,4.35-5.14,8.53-7.77,12.76a6.4,6.4,0,0,1-1.32,1.21,9.21,9.21,0,0,1,.74-9.37c1.95-2.8,4.38-5.29,6.11-8.21C350.56,178.4,353.06,173.29,355.73,168.27Z" transform="translate(-122 -89.89)"/><path class="cls-30" d="M309,168.1c5.37-4.9,11.64-8.25,18.83-9,2.51-.26,5.24,1.63,7.88,2.53-7.37-.33-13.51,3-19.51,6.63C313.67,169.78,311.37,170.72,309,168.1Z" transform="translate(-122 -89.89)"/><path class="cls-3" d="M337.48,168.69c-2.81-2.4-7.18-2.5-11.16-.29-3.51,2-7,3.91-10.57,5.78a8.79,8.79,0,0,1-12.57-5.91l3.72,1.54c3.33,3.79,5.3,3.92,10.89.34,5.94-3.81,12.21-6.23,19.41-5.57C337.29,166,337.38,167.32,337.48,168.69Z" transform="translate(-122 -89.89)"/><path class="cls-21" d="M337.2,164.58c-7.2-.66-13.47,1.76-19.41,5.57-5.59,3.58-7.56,3.45-10.89-.34L309,168.1c2.35,2.62,4.65,1.68,7.2.15,6-3.6,12.14-7,19.51-6.63Z" transform="translate(-122 -89.89)"/><path class="cls-25" d="M451.82,223.84l2.85-.84a23,23,0,0,0,20.24-.16c7.76-3.76,10.91-10.51,11.57-18.72.11-1.34.06-2.69.09-4,3.3,3.26,2.61,7.48,1.95,11.2-2.13,12.11-12,18.29-24.23,15.82-2.73-.55-5.68,0-8.42-.52C454.4,226.3,453.16,224.8,451.82,223.84Z" transform="translate(-122 -89.89)"/><path class="cls-25" d="M434.58,216c-.23-1.35-.47-2.7-.71-4.05l7.72,2.59C439.67,217,437.46,218.09,434.58,216Z" transform="translate(-122 -89.89)"/><path class="cls-20" d="M184.11,241.48c-1,1.42-2.71,2.8-2.78,4.26-.27,5-5.38,7.78-9.39,8.26-4.18.49-8.25-.2-10.1-6.28l3-.28a4.7,4.7,0,0,0,5.19,4.24c2.91-.09,6.54-.26,7.76-3.71,2.57-7.24,7.06-13,12.42-18.35,4.83-4.86,8.24-10.8,7.13-18.15-.6-4-.8-8.35-5.1-10.66l-3-5.92c5.84,1.81,7.7,6.84,9.59,11.84l1.47,2.23v8.12l-2.21,5.18-.74,3L196,227.44,190,233.36c-.5.74-1,1.48-1.48,2.22l-1.48,1.48-1.48,1.47Z" transform="translate(-122 -89.89)"/><path class="cls-30" d="M167.83,246.91l6.89-1.2c-1.16-6,.2-11,4.93-14.91a75.11,75.11,0,0,0,6.24-6.25c4.17-4.39,7.09-9.39,7.41-15.61.51.75,1.32,1.45,1.49,2.28,1.12,5.57-1,10.24-4.24,14.6-4.88,6.59-12,11.41-14.45,20C175,249.77,170.06,250,167.83,246.91Z" transform="translate(-122 -89.89)"/><path class="cls-21" d="M167.83,246.91c2.23,3.09,7.14,2.86,8.27-1.1,2.45-8.58,9.57-13.4,14.45-20,3.22-4.36,5.36-9,4.24-14.6-.17-.83-1-1.53-1.49-2.28q-.5-4.06-1-8.13c4.3,2.31,4.5,6.64,5.1,10.66,1.11,7.35-2.3,13.29-7.13,18.15-5.36,5.39-9.85,11.11-12.42,18.35-1.22,3.45-4.85,3.62-7.76,3.71a4.7,4.7,0,0,1-5.19-4.24Z" transform="translate(-122 -89.89)"/><path class="cls-2" d="M200.38,217.08V209l-1.47-2.23c-1.89-5-3.75-10-9.59-11.84L184,190c.71-.14,1.52-.57,2.11-.37,8.37,2.88,13.13,8.93,15.53,17.31,3.24,11.24-3.31,22.33-10.21,28.17a3.92,3.92,0,0,1-1.38.43v-2.22l5.91-5.92,1.48-2.23c.25-1,.49-2,.74-3Q199.28,219.68,200.38,217.08Z" transform="translate(-122 -89.89)"/><path class="cls-25" d="M147.88,208.21c5.82-3.9,12.09-6.67,19.19-6.52,2.06,0,4.09,1.55,6.12,2.39-.34.33-.69,1-1,1-6.82-.29-12.79,2.53-19,4.78C151.8,210.32,149.68,208.8,147.88,208.21Z" transform="translate(-122 -89.89)"/><path class="cls-3" d="M175.46,210.5c-5-1.71-9.76-.63-14.54,1.14a65.29,65.29,0,0,1-10.71,3.14c-3.21.58-5.22-1.35-6-4.52l1.4-.6c2.89,3.28,6,3.66,10.1,1.79,6.12-2.82,12.39-5.67,19.51-4Z" transform="translate(-122 -89.89)"/><path class="cls-28" d="M175.26,207.47c-7.12-1.69-13.39,1.16-19.51,4-4.05,1.87-7.21,1.49-10.1-1.79l2.23-1.45c1.8.59,3.92,2.11,5.32,1.61,6.19-2.25,12.16-5.07,19-4.78.32,0,.67-.63,1-1Z" transform="translate(-122 -89.89)"/><path class="cls-3" d="M312.06,422.64l-2.22-.78a12.66,12.66,0,0,1,.74-2.8c2.32-4.33,3-8.88,3.07-13.81.08-8.31.88-16.62,1.34-24.93.76-14.06,1.58-28.12,2.2-42.19.23-5.37.91-10.32,4.69-14.64,2.93-3.35,1.48-8.82-2.34-11-.57-1.21-1.15-2.41-1.72-3.61-.3-4.65-.54-9.3-.91-13.95-.26-3.4-.85-6.79-1-10.2-.12-2.87,3.43-5.29,6.35-4.43,3.5,1,7,2.2,10.4,3.44,8.9,3.22,13.84.33,14.83-9,.87-8.15,1.48-16.32,2.32-24.47a13.43,13.43,0,0,1,1.41-4.91,27.25,27.25,0,0,0,2.95-15.71c-.24-2.77-1.05-5.29-4.32-5.94l-1.23-3.53c1.47.67,3.34,1,4.34,2.07a15.09,15.09,0,0,1,3,16.1c-4.4,11.55-5.11,23.58-6.23,35.62a26.71,26.71,0,0,1-2.22,8.79c-1.89,4-6.81,5.56-11.06,4.16-4-1.3-7.93-2.55-11.93-3.69-4.28-1.23-6.49.89-6,5.39.65,5.71.95,11.46,1.78,17.15a17,17,0,0,0,2.61,5.94c3.56,5.89,3.66,9-.31,14.41-2.93,4-3.68,8.42-3.9,13.15-.82,17.73-1.66,35.46-2.63,53.18q-.62,11.43-1.84,22.81C314,417.78,312.81,420.19,312.06,422.64Z" transform="translate(-122 -89.89)"/><path class="cls-27" d="M452.4,327.9c1.14-3.81,3.72-5.89,7.6-6.59,2.89-.53,5.71-1.41,8.61-1.9,7-1.18,13.88-8,13.75-15.6,0-.32.29-.65.45-1,.51.64,1.26,1.2,1.48,1.93,2.8,9.3-4.17,15.69-12.62,18.08-3.61,1-7.1,2.45-10.7,3.5C458.18,327.16,455.73,330,452.4,327.9Z" transform="translate(-122 -89.89)"/><path class="cls-28" d="M452.4,327.9c3.33,2.13,5.78-.74,8.57-1.55,3.6-1.05,7.09-2.48,10.7-3.5,8.45-2.39,15.42-8.78,12.62-18.08-.22-.73-1-1.29-1.48-1.93l-.87-5.06c4.25,1.4,5,5.17,5.3,8.74.76,8.29-3.84,14.52-12.45,17.71-6.06,2.24-12.09,4.57-18.11,6.9-3,1.15-5.51.09-7.08-3.05Z" transform="translate(-122 -89.89)"/><path class="cls-28" d="M453.3,293.27c6,.57,11.88,1.48,15.31,7.4a116.81,116.81,0,0,1-11.9-3.28C455.26,296.83,454.42,294.69,453.3,293.27Z" transform="translate(-122 -89.89)"/><path class="cls-3" d="M453.3,293.27c1.12,1.42,2,3.56,3.41,4.12a116.81,116.81,0,0,0,11.9,3.28l-.42,3.81c-3.16-1.28-6.22-2.93-9.49-3.74-4.62-1.16-7.24-3.32-7.63-7.36Z" transform="translate(-122 -89.89)"/><path class="cls-18" d="M393.4,443.38l14.81-.73c-.24.41-.48,1.18-.71,1.17C402.8,443.73,398.1,443.55,393.4,443.38Z" transform="translate(-122 -89.89)"/><path class="cls-18" d="M420,442.65l13.31-.74c-.23.41-.47,1.18-.69,1.17C428.44,443,424.23,442.81,420,442.65Z" transform="translate(-122 -89.89)"/><path class="cls-18" d="M434.82,441.91l10.36-.74c-1,.49-1.91,1.39-2.86,1.39C439.82,442.55,437.32,442.15,434.82,441.91Z" transform="translate(-122 -89.89)"/><path class="cls-18" d="M411.14,442.65h6.67C415.59,443.14,413.37,445.91,411.14,442.65Z" transform="translate(-122 -89.89)"/><path class="cls-21" d="M220.3,260.12l-3.66.17-.75-2.53a9.15,9.15,0,0,0,1.5-1.95c2.69-6.69,6.08-12.68,13.8-14.67a6.32,6.32,0,0,0,2.15-1.4,5.47,5.47,0,0,0,.34-7.86l0-5.18c5.79,1.34,6.32,10.64,2.88,13.66a30.84,30.84,0,0,1-6.42,4.66c-5.23,2.57-8.58,6.3-9.14,12.26A18,18,0,0,1,220.3,260.12Z" transform="translate(-122 -89.89)"/><path class="cls-29" d="M215.89,257.76l.75,2.53a49.49,49.49,0,0,1-2.78,4.31c-1.79,2.22-4,4-6.92,2.18s-.53-4.11.06-6.18c-1.59-6.51-1.59-6.51-7.35-6.52l-2.87-1.7c-1-2.56-2-5.1-2.88-7.71-.17-.51.44-1.27.7-1.91q1.4-3.44,2.8-6.87l1.55-2.56,7.38,9c2.07-.8,4.47-2.16,5.85.88,1.19,2.62-.43,4.09-3.94,5.19l5.39,4.08C214.38,254.23,215.14,256,215.89,257.76Z" transform="translate(-122 -89.89)"/><path class="cls-2" d="M184.11,241.48l1.49-2.95h1.48c.1.08.29.2.28.23-2.49,5.16-4.66,10.52-7.62,15.4-1.57,2.58-2,3.45,1.15,4.68,6.66,2.62,9.7,8.83,8.59,16-.36,2.31-.69,5.13.3,7,1.82,3.47,5.33,2.73,8.52,1.74l.51,5.12-13.95-6.56a99.47,99.47,0,0,0,1.41-10.38c.18-5-1.65-7.45-5.85-8.85-1.56-3.12-3.64-5.6-7.39-6.05.69-.71,1.26-1.81,2.09-2.08,4.39-1.43,6.76-4.4,7.55-8.88A32.94,32.94,0,0,1,184.11,241.48Z" transform="translate(-122 -89.89)"/><path class="cls-2" d="M196.78,252.38l2.87,1.7,5.31,6.7-3,1.49C199.57,259.34,196.64,256.67,196.78,252.38Z" transform="translate(-122 -89.89)"/><path class="cls-13" d="M190,233.36v2.22h-1.48C189.05,234.84,189.54,234.1,190,233.36Z" transform="translate(-122 -89.89)"/><path class="cls-13" d="M187.08,238.53H185.6l1.48-1.47Z" transform="translate(-122 -89.89)"/><path class="cls-23" d="M405.21,161.57c.23-3.89,2.34-6.33,5.88-7.72,1.14-.45,2.19-1.16,3.34-1.56,7.15-2.52,10.91-7.58,11.43-15.1,5.42,4.19,2.3,12.37-1.91,15.37-4.78,3.42-9.81,6.48-14.76,9.65C407.74,163.13,406.22,163.7,405.21,161.57Z" transform="translate(-122 -89.89)"/><path class="cls-22" d="M405.21,161.57c1,2.13,2.53,1.56,4,.64,4.95-3.17,10-6.23,14.76-9.65,4.21-3,7.33-11.18,1.91-15.37-.16-1-.33-2-.5-2.95,3.59.12,4.33,3.08,4.88,5.56,1.63,7.32-2.25,14.17-9,17.44-3,1.46-5.72,3.62-8.56,5.47a29.51,29.51,0,0,1-4,2.54c-3.47,1.54-5.69.15-6.36-3.77Z" transform="translate(-122 -89.89)"/><path class="cls-20" d="M413.35,140.18c-2.4-.25-4.8-.66-7.21-.71-5.57-.12-7.11-1.17-9.05-6.58l3.69-.39c1,1.32,1.77,3.5,3,3.78,3.3.75,6.79.7,10.21,1Z" transform="translate(-122 -89.89)"/><path class="cls-23" d="M414,137.24c-3.42-.26-6.91-.21-10.21-1-1.22-.28-2-2.46-3-3.78C407.37,131.11,412.23,132.86,414,137.24Z" transform="translate(-122 -89.89)"/><path class="cls-23" d="M147.89,333.21c.38-3.55,2.38-5.76,5.65-7,2-.73,3.83-1.63,5.75-2.44,6-2.52,9.32-6.93,9.56-13.52.9,1.27,2.36,2.44,2.6,3.82.88,5.19-1.66,9-5.86,11.71-3.88,2.5-8,4.59-11.84,7.2C151.64,334.42,149.92,334.9,147.89,333.21Z" transform="translate(-122 -89.89)"/><path class="cls-26" d="M147.89,333.21c2,1.69,3.75,1.21,5.86-.23,3.81-2.61,8-4.7,11.84-7.2,4.2-2.71,6.74-6.52,5.86-11.71-.24-1.38-1.7-2.55-2.6-3.82-.14-1.45-.29-2.9-.43-4.35,3.93,1.58,6.28,7.47,5,12.36s-4.4,8-8.54,10.49q-5.64,3.38-11.15,7c-3.57,2.33-7.05,1.39-8.84-2.53Z" transform="translate(-122 -89.89)"/><path class="cls-3" d="M156.16,313.41c-1.93-.55-3.83-1.45-5.79-1.6-5.72-.46-8.46-2.38-9.17-6.9l3-.44c1.48,1.44,2.72,3.59,4.48,4.16,2.71.88,5.77.67,8.68.93Z" transform="translate(-122 -89.89)"/><path class="cls-21" d="M157.33,309.56c-2.91-.26-6-.05-8.68-.93-1.76-.57-3-2.72-4.48-4.16,3.24.38,6.57.41,9.66,1.29C155.24,306.16,156.18,308.24,157.33,309.56Z" transform="translate(-122 -89.89)"/><path class="cls-24" d="M215.89,257.76c-.75-1.77-1.51-3.53-2.26-5.3.59-1.16,1.14-2.34,1.77-3.47,1.69-3,3.41-6.07,5.34-9.49,5.9,1.09,10.44-1.48,12.94-7.62a5.47,5.47,0,0,1-.34,7.86,6.32,6.32,0,0,1-2.15,1.4c-7.72,2-11.11,8-13.8,14.67A9.15,9.15,0,0,1,215.89,257.76Z" transform="translate(-122 -89.89)"/><path class="cls-3" d="M261.75,194.17c5.06.65,9.07,8,8.42,13.43a13,13,0,0,1-12,11.74c-4.59.22-8.89-.17-11.91-4.17a16,16,0,0,1-1.48-3.18l4.38,1.2c1,1.14,1.74,3,2.93,3.31,4.73,1.35,9.43,1.09,13.35-3.39a10.59,10.59,0,0,0,1-11.65c-.53-1-2-1.45-3-2.15Q262.59,196.73,261.75,194.17Z" transform="translate(-122 -89.89)"/><path class="cls-21" d="M263.44,199.31c1,.7,2.44,1.18,3,2.15a10.59,10.59,0,0,1-1,11.65c-3.92,4.48-8.62,4.74-13.35,3.39-1.19-.34-2-2.17-2.93-3.31l3.75-.25c.88.64,1.7,1.72,2.65,1.85,4.44.58,9.18-2.94,9.72-7.36.13-1.14-1.14-2.44-1.76-3.67C263.47,202.28,263.45,200.79,263.44,199.31Z" transform="translate(-122 -89.89)"/><path class="cls-25" d="M263.49,203.76c.62,1.23,1.89,2.53,1.76,3.67-.54,4.42-5.28,7.94-9.72,7.36-.95-.13-1.77-1.21-2.65-1.85C258.09,211.82,262.16,209.37,263.49,203.76Z" transform="translate(-122 -89.89)"/><path class="cls-28" d="M420,220a25.06,25.06,0,0,1-1.49-2.06c-.75-1.27-1.41-2.57-2.1-3.86-.27-1.73-.54-3.45-.8-5.18l5.19,6.15C420.57,216.74,420.31,218.39,420,220Z" transform="translate(-122 -89.89)"/><path class="cls-16" d="M184.86,282.17l13.95,6.56.66,9.82c-9.34-5.13-18.66-10.29-28-15.38-1.37-.74-2.88-1.21-4.32-1.81l-3.67-5.44c3.77,2.17,7.71,1.72,11.69.76l6,3.89Z" transform="translate(-122 -89.89)"/><path class="cls-22" d="M184.86,282.17l-3.68-1.6c.62-2,1.37-3.91,1.84-5.91.52-2.25,1.09-4.66-1.92-5.8-.23-2-.45-3.95-.68-5.92,4.2,1.4,6,3.83,5.85,8.85A99.47,99.47,0,0,1,184.86,282.17Z" transform="translate(-122 -89.89)"/><path class="cls-25" d="M181.1,268.86c3,1.14,2.44,3.55,1.92,5.8-.47,2-1.22,3.94-1.84,5.91l-6-3.89A11,11,0,0,0,181.1,268.86Z" transform="translate(-122 -89.89)"/><path class="cls-28" d="M360.93,297c3.61,1.79,5.18,7.56,2.9,11.37a71.05,71.05,0,0,1-5.28,7.52c-2.16,2.72-3.48,2.35-5.09-1.17-.5-3.32.82-5.85,3.23-8.07C359.48,304,361.29,301,360.93,297Z" transform="translate(-122 -89.89)"/><path class="cls-28" d="M346.8,296.34c2.18-1.17,4.28-1.26,5.83.91s.42,4.09-1.33,5.68C347.87,302.05,344.89,300.86,346.8,296.34Z" transform="translate(-122 -89.89)"/><path class="cls-3" d="M346.8,296.34c-1.91,4.52,1.07,5.71,4.5,6.59l-2.16,2.3c-.51-.28-1-.86-1.5-.81-4.08.51-4.76-2.77-6.11-5.33Z" transform="translate(-122 -89.89)"/><path class="cls-21" d="M140.47,351.78c3.81-.66,5.63-3.12,6.13-6.78,3.48,1.91,4.45,4.22,3.09,7.45-1.19,2.8-3.63,3.45-6.1,2.7C142.32,354.76,141.5,353,140.47,351.78Z" transform="translate(-122 -89.89)"/><path class="cls-22" d="M404.31,175.64c.1-1,.2-2,.29-2.93,4,2,5.64,4.31,4.09,7.65a9.09,9.09,0,0,1-5.77,4.63,4.89,4.89,0,0,1-5.85-4.62l2.23-.08c1.38.84,2.86,2.45,4.12,2.3s2.65-2,3.16-3.33C407.17,177.65,406.75,175.79,404.31,175.64Z" transform="translate(-122 -89.89)"/><path class="cls-22" d="M448.19,338.35c3.81.91,5.5,3.67,5.11,8.33-.23,2.77-4.51,6.9-7.46,7.2a7.27,7.27,0,0,1-8.09-5.79l3,.54c3.2,3,6.3,2.95,8.74-.15,1.76-2.24,1.19-5.31-1.32-7.15Z" transform="translate(-122 -89.89)"/><path class="cls-23" d="M448.13,341.33c2.51,1.84,3.08,4.91,1.32,7.15-2.44,3.1-5.54,3.15-8.74.15C444.81,347.85,446.72,344.84,448.13,341.33Z" transform="translate(-122 -89.89)"/><path class="cls-23" d="M404.31,175.64c2.44.15,2.86,2,2.27,3.62-.51,1.38-2,3.19-3.16,3.33s-2.74-1.46-4.12-2.3Z" transform="translate(-122 -89.89)"/><path class="cls-21" d="M404.5,237.78c-2.65-.31-3.82-2.07-4.36-4.46C403.09,233.34,404,235.41,404.5,237.78Z" transform="translate(-122 -89.89)"/><path class="cls-26" d="M319.54,312.48c3.82,2.19,5.27,7.66,2.34,11-3.78,4.32-4.46,9.27-4.69,14.64-.62,14.07-1.44,28.13-2.2,42.19-.46,8.31-1.26,16.62-1.34,24.93-.06,4.93-.75,9.48-3.07,13.81a12.66,12.66,0,0,0-.74,2.8l-2.25-.48c4.82-9.44,4.08-19.7,4.49-29.82.65-16,1.44-32.06,2.22-48.09.15-3.18.47-6.34.74-9.51.39-4.58,2.6-8.3,5.35-11.85,1.64-2.11,2.29-4.46-1-5.94C319.44,314.94,319.49,313.71,319.54,312.48Z" transform="translate(-122 -89.89)"/><path class="cls-22" d="M205,260.78l-5.31-6.7c5.76,0,5.76,0,7.35,6.52Z" transform="translate(-122 -89.89)"/><path class="cls-28" d="M330.54,443.37H323.9c-.83-.49-1.66-1.39-2.49-1.4q-11.21-.17-22.4,0c-.84,0-1.66.91-2.49,1.4l-6.65-.72a6.2,6.2,0,0,0-2-.71q-12.09-.07-24.17,0a6.22,6.22,0,0,0-2,.7h-2.22l-5.18-2.21H367.53a16,16,0,0,1-2.49,1.44,28.1,28.1,0,0,1-3.44.77h-1.47c-.3-.21-.6-.6-.9-.6-9-.06-18-.12-26.93-.06C331.71,442,331.13,442.89,330.54,443.37Z" transform="translate(-122 -89.89)"/><path class="cls-20" d="M213,441.89a23,23,0,0,1,3.8-.7c6.59-.07,13.18,0,19.76-.06a21,21,0,0,0,3.8-.7h2.22l.75,2.21c-9.09,0-18.18,0-27.27,0A14.14,14.14,0,0,1,213,441.89Z" transform="translate(-122 -89.89)"/><path class="cls-28" d="M243.29,442.64l-.75-2.21H252.9l-4.44,2.2Z" transform="translate(-122 -89.89)"/><path class="cls-20" d="M248.46,442.63l4.44-2.2h1.47l5.18,2.21Z" transform="translate(-122 -89.89)"/><path class="cls-20" d="M361.6,442.64a28.1,28.1,0,0,0,3.44-.77,16,16,0,0,0,2.49-1.44H369l3.71,2.2Z" transform="translate(-122 -89.89)"/><path class="cls-20" d="M330.54,443.37c.59-.48,1.17-1.39,1.76-1.39,9-.06,18,0,26.93.06.3,0,.6.39.9.6a22.47,22.47,0,0,1-3.82.71C347.72,443.41,339.13,443.37,330.54,443.37Z" transform="translate(-122 -89.89)"/><path class="cls-20" d="M261.77,442.64a6.22,6.22,0,0,1,2-.7q12.08-.07,24.17,0a6.2,6.2,0,0,1,2,.71,6.66,6.66,0,0,1-2,.7q-12.07.06-24.17,0A6.43,6.43,0,0,1,261.77,442.64Z" transform="translate(-122 -89.89)"/><path class="cls-20" d="M296.52,443.37c.83-.49,1.65-1.39,2.49-1.4q11.19-.17,22.4,0c.83,0,1.66.91,2.49,1.4Z" transform="translate(-122 -89.89)"/><path class="cls-20" d="M193.73,441.16h0Z" transform="translate(-122 -89.89)"/><path class="cls-13" d="M200.38,217.08q-1.09,2.59-2.21,5.18Q199.28,219.68,200.38,217.08Z" transform="translate(-122 -89.89)"/><path class="cls-13" d="M200.38,210.43v0Z" transform="translate(-122 -89.89)"/><path class="cls-13" d="M198.91,206.73l1.47,2.23Z" transform="translate(-122 -89.89)"/><path class="cls-13" d="M197.43,225.21,196,227.44Z" transform="translate(-122 -89.89)"/></svg>